# Blender 5.0.1
# www.blender.org
mtllib lbox.mtl
o Body
v -1.000000 0.000000 1.000000
v -0.900000 1.500000 0.900000
v -1.000000 0.000000 -1.000000
v -0.900000 1.500000 -0.900000
v 1.000000 0.000000 1.000000
v 0.900000 1.500000 0.900000
v 1.000000 0.000000 -1.000000
v 0.900000 1.500000 -0.900000
v -1.000000 1.600000 1.000000
v -1.000000 1.600000 -1.000000
v 1.000000 1.600000 -1.000000
v 1.000000 1.600000 1.000000
v -0.900000 1.500000 0.900000
v -0.900000 1.500000 -0.900000
v 0.900000 1.500000 -0.900000
v 0.900000 1.500000 0.900000
v -0.900000 0.100000 0.900000
v -0.900000 0.100000 -0.900000
v 0.900000 0.100000 -0.900000
v 0.900000 0.100000 0.900000
vn -1.0000 -0.0000 -0.0000
vn -0.0000 -0.0000 -1.0000
vn 1.0000 -0.0000 -0.0000
vn -0.0000 -0.0000 1.0000
vn -0.0000 -1.0000 -0.0000
vn -0.0000 1.0000 -0.0000
vn 0.7071 0.7071 -0.0000
vn -0.0000 0.7071 0.7071
vn -0.7071 0.7071 -0.0000
vn -0.0000 0.7071 -0.7071
vt 0.375000 0.000000
vt 0.625000 0.000000
vt 0.625000 0.250000
vt 0.375000 0.250000
vt 0.625000 0.500000
vt 0.375000 0.500000
vt 0.625000 0.750000
vt 0.375000 0.750000
vt 0.625000 1.000000
vt 0.375000 1.000000
vt 0.125000 0.500000
vt 0.125000 0.750000
vt 0.862500 0.512500
vt 0.862500 0.737500
vt 0.875000 0.500000
vt 0.875000 0.750000
vt 0.637500 0.512500
vt 0.637500 0.737500
s 0
usemtl 
f 1/1/1 9/2/1 10/3/1 3/4/1
f 3/4/2 10/3/2 11/5/2 7/6/2
f 7/6/3 11/5/3 12/7/3 5/8/3
f 5/8/4 12/7/4 9/9/4 1/10/4
f 3/11/5 7/6/5 5/8/5 1/12/5
f 4/13/6 2/14/6 13/14/6 14/13/6
f 2/14/7 4/13/7 10/15/7 9/16/7
f 4/13/8 8/17/8 11/5/8 10/15/8
f 8/17/9 6/18/9 12/7/9 11/5/9
f 6/18/10 2/14/10 9/16/10 12/7/10
f 13/14/2 16/18/2 20/18/2 17/14/2
f 2/14/6 6/18/6 16/18/6 13/14/6
f 8/17/6 4/13/6 14/13/6 15/17/6
f 6/18/6 8/17/6 15/17/6 16/18/6
f 19/17/6 18/13/6 17/14/6 20/18/6
f 15/17/4 14/13/4 18/13/4 19/17/4
f 16/18/1 15/17/1 19/17/1 20/18/1
f 14/13/3 13/14/3 17/14/3 18/13/3
o Flap.001
v -0.900000 1.500000 0.900000
v -1.000000 1.600000 1.000000
v -0.900000 1.500000 0.100000
v -1.000000 1.600000 0.000000
v 0.900000 1.500000 0.900000
v 1.000000 1.600000 1.000000
v 0.900000 1.500000 0.100000
v 1.000000 1.600000 0.000000
vn -0.7071 -0.7071 -0.0000
vn -0.0000 -0.7071 -0.7071
vn 0.7071 -0.7071 -0.0000
vn -0.0000 -0.7071 0.7071
vn -0.0000 -1.0000 -0.0000
vn -0.0000 1.0000 -0.0000
vt 0.375000 0.000000
vt 0.625000 0.000000
vt 0.625000 0.250000
vt 0.375000 0.250000
vt 0.625000 0.500000
vt 0.375000 0.500000
vt 0.625000 0.750000
vt 0.375000 0.750000
vt 0.625000 1.000000
vt 0.375000 1.000000
vt 0.125000 0.500000
vt 0.125000 0.750000
vt 0.875000 0.500000
vt 0.875000 0.750000
s 0
usemtl 
f 21/19/11 22/20/11 24/21/11 23/22/11
f 23/22/12 24/21/12 28/23/12 27/24/12
f 27/24/13 28/23/13 26/25/13 25/26/13
f 25/26/14 26/25/14 22/27/14 21/28/14
f 23/29/15 27/24/15 25/26/15 21/30/15
f 28/23/16 24/31/16 22/32/16 26/25/16
o Flap.002
v -0.900000 1.500000 -0.100000
v -1.000000 1.600000 0.000000
v -0.900000 1.500000 -0.900000
v -1.000000 1.600000 -1.000000
v 0.900000 1.500000 -0.100000
v 1.000000 1.600000 0.000000
v 0.900000 1.500000 -0.900000
v 1.000000 1.600000 -1.000000
vn -0.7071 -0.7071 -0.0000
vn -0.0000 -0.7071 -0.7071
vn 0.7071 -0.7071 -0.0000
vn -0.0000 -0.7071 0.7071
vn -0.0000 -1.0000 -0.0000
vn -0.0000 1.0000 -0.0000
vt 0.375000 0.000000
vt 0.625000 0.000000
vt 0.625000 0.250000
vt 0.375000 0.250000
vt 0.625000 0.500000
vt 0.375000 0.500000
vt 0.625000 0.750000
vt 0.375000 0.750000
vt 0.625000 1.000000
vt 0.375000 1.000000
vt 0.125000 0.500000
vt 0.125000 0.750000
vt 0.875000 0.500000
vt 0.875000 0.750000
s 0
usemtl 
f 29/33/17 30/34/17 32/35/17 31/36/17
f 31/36/18 32/35/18 36/37/18 35/38/18
f 35/38/19 36/37/19 34/39/19 33/40/19
f 33/40/20 34/39/20 30/41/20 29/42/20
f 31/43/21 35/38/21 33/40/21 29/44/21
f 36/37/22 32/45/22 30/46/22 34/39/22
