# Blender 5.0.1
# www.blender.org
mtllib rack shelf2.mtl
o Cube.002
v -2.850000 -0.400000 1.000000
v -2.850000 -0.300000 1.000000
v 2.850000 -0.400000 1.000000
v 2.850000 -0.300000 1.000000
v -2.850000 -0.400000 1.100000
v -2.850000 -0.300000 1.100000
v 2.850000 -0.400000 1.100000
v 2.850000 -0.300000 1.100000
v -2.150000 -0.050000 1.050000
v -2.150000 0.050000 1.050000
v -2.150000 -0.050000 -1.100000
v -2.150000 0.050000 -1.100000
v -2.050000 -0.050000 1.050000
v -2.050000 0.050000 1.050000
v -2.050000 -0.050000 -1.100000
v -2.050000 0.050000 -1.100000
v -2.150000 -0.050000 1.150000
v -2.150000 0.050000 1.150000
v -2.050000 0.050000 1.150000
v -2.050000 -0.050000 1.150000
v -2.150000 -0.400000 1.050000
v -2.050000 -0.400000 1.050000
v -2.150000 -0.400000 1.150000
v -2.050000 -0.400000 1.150000
v -0.050000 -0.050000 1.050000
v -0.050000 0.050000 1.050000
v -0.050000 -0.050000 -1.100000
v -0.050000 0.050000 -1.100000
v 0.050000 -0.050000 1.050000
v 0.050000 0.050000 1.050000
v 0.050000 -0.050000 -1.100000
v 0.050000 0.050000 -1.100000
v -0.050000 -0.050000 1.150000
v -0.050000 0.050000 1.150000
v 0.050000 0.050000 1.150000
v 0.050000 -0.050000 1.150000
v -0.050000 -0.400000 1.050000
v 0.050000 -0.400000 1.050000
v -0.050000 -0.400000 1.150000
v 0.050000 -0.400000 1.150000
v 0.650000 -0.050000 1.050000
v 0.650000 0.050000 1.050000
v 0.650000 -0.050000 -1.100000
v 0.650000 0.050000 -1.100000
v 0.750000 -0.050000 1.050000
v 0.750000 0.050000 1.050000
v 0.750000 -0.050000 -1.100000
v 0.750000 0.050000 -1.100000
v 0.650000 -0.050000 1.150000
v 0.650000 0.050000 1.150000
v 0.750000 0.050000 1.150000
v 0.750000 -0.050000 1.150000
v 0.650000 -0.400000 1.050000
v 0.750000 -0.400000 1.050000
v 0.650000 -0.400000 1.150000
v 0.750000 -0.400000 1.150000
v 1.350000 -0.050000 1.050000
v 1.350000 0.050000 1.050000
v 1.350000 -0.050000 -1.100000
v 1.350000 0.050000 -1.100000
v 1.450000 -0.050000 1.050000
v 1.450000 0.050000 1.050000
v 1.450000 -0.050000 -1.100000
v 1.450000 0.050000 -1.100000
v 1.350000 -0.050000 1.150000
v 1.350000 0.050000 1.150000
v 1.450000 0.050000 1.150000
v 1.450000 -0.050000 1.150000
v 1.350000 -0.400000 1.050000
v 1.450000 -0.400000 1.050000
v 1.350000 -0.400000 1.150000
v 1.450000 -0.400000 1.150000
v 2.050000 -0.050000 1.050000
v 2.050000 0.050000 1.050000
v 2.050000 -0.050000 -1.100000
v 2.050000 0.050000 -1.100000
v 2.150000 -0.050000 1.050000
v 2.150000 0.050000 1.050000
v 2.150000 -0.050000 -1.100000
v 2.150000 0.050000 -1.100000
v 2.050000 -0.050000 1.150000
v 2.050000 0.050000 1.150000
v 2.150000 0.050000 1.150000
v 2.150000 -0.050000 1.150000
v 2.050000 -0.400000 1.050000
v 2.150000 -0.400000 1.050000
v 2.050000 -0.400000 1.150000
v 2.150000 -0.400000 1.150000
v -1.450000 -0.050000 1.050000
v -1.450000 0.050000 1.050000
v -1.450000 -0.050000 -1.100000
v -1.450000 0.050000 -1.100000
v -1.350000 -0.050000 1.050000
v -1.350000 0.050000 1.050000
v -1.350000 -0.050000 -1.100000
v -1.350000 0.050000 -1.100000
v -1.450000 -0.050000 1.150000
v -1.450000 0.050000 1.150000
v -1.350000 0.050000 1.150000
v -1.350000 -0.050000 1.150000
v -1.450000 -0.400000 1.050000
v -1.350000 -0.400000 1.050000
v -1.450000 -0.400000 1.150000
v -1.350000 -0.400000 1.150000
v -0.750000 -0.050000 1.050000
v -0.750000 0.050000 1.050000
v -0.750000 -0.050000 -1.100000
v -0.750000 0.050000 -1.100000
v -0.650000 -0.050000 1.050000
v -0.650000 0.050000 1.050000
v -0.650000 -0.050000 -1.100000
v -0.650000 0.050000 -1.100000
v -0.750000 -0.050000 1.150000
v -0.750000 0.050000 1.150000
v -0.650000 0.050000 1.150000
v -0.650000 -0.050000 1.150000
v -0.750000 -0.400000 1.050000
v -0.650000 -0.400000 1.050000
v -0.750000 -0.400000 1.150000
v -0.650000 -0.400000 1.150000
v -2.850000 -0.100000 -0.400000
v -2.850000 0.000000 -0.400000
v 2.850000 -0.100000 -0.400000
v 2.850000 0.000000 -0.400000
v -2.850000 -0.100000 -0.300000
v -2.850000 0.000000 -0.300000
v 2.850000 -0.100000 -0.300000
v 2.850000 0.000000 -0.300000
v -2.850000 -0.100000 0.300000
v -2.850000 0.000000 0.300000
v 2.850000 -0.100000 0.300000
v 2.850000 0.000000 0.300000
v -2.850000 -0.100000 0.400000
v -2.850000 0.000000 0.400000
v 2.850000 -0.100000 0.399999
v 2.850000 0.000000 0.399999
v -2.850000 -0.100000 1.000000
v -2.850000 0.000000 1.000000
v 2.850000 -0.100000 1.000000
v 2.850000 0.000000 1.000000
v -2.850000 -0.100000 1.100000
v -2.850000 0.000000 1.100000
v 2.850000 -0.100000 1.100000
v 2.850000 0.000000 1.100000
v -2.850000 -0.100000 -1.100000
v -2.850000 0.000000 -1.100000
v 2.850000 -0.100000 -1.100000
v 2.850000 0.000000 -1.100000
v -2.850000 -0.100000 -1.000000
v -2.850000 0.000000 -1.000000
v 2.850000 -0.100000 -1.000000
v 2.850000 0.000000 -1.000000
v 2.750000 -0.050000 1.050000
v 2.750000 0.050000 1.050000
v 2.750000 -0.050000 -1.100000
v 2.750000 0.050000 -1.100000
v 2.850000 -0.050000 1.050000
v 2.850000 0.050000 1.050000
v 2.850000 -0.050000 -1.100000
v 2.850000 0.050000 -1.100000
v 2.750000 -0.050000 1.150000
v 2.750000 0.050000 1.150000
v 2.850000 0.050000 1.150000
v 2.850000 -0.050000 1.150000
v 2.750000 -0.400000 1.050000
v 2.850000 -0.400000 1.050000
v 2.750000 -0.400000 1.150000
v 2.850000 -0.400000 1.150000
v -2.850000 -0.050000 1.050000
v -2.850000 0.050000 1.050000
v -2.850001 -0.050000 -1.100000
v -2.850001 0.050000 -1.100000
v -2.750000 -0.050000 1.050000
v -2.750000 0.050000 1.050000
v -2.750001 -0.050000 -1.100000
v -2.750001 0.050000 -1.100000
v -2.850000 -0.050000 1.150000
v -2.850000 0.050000 1.150000
v -2.750000 0.050000 1.150000
v -2.750000 -0.050000 1.150000
v -2.850000 -0.400000 1.050000
v -2.750000 -0.400000 1.050000
v -2.850000 -0.400000 1.150000
v -2.750000 -0.400000 1.150000
vn -0.0000 -0.0000 -1.0000
vn 1.0000 -0.0000 -0.0000
vn -0.0000 -0.0000 1.0000
vn -1.0000 -0.0000 -0.0000
vn -0.0000 -1.0000 -0.0000
vn -0.0000 1.0000 -0.0000
vt 0.375000 0.000000
vt 0.625000 0.000000
vt 0.625000 0.250000
vt 0.375000 0.250000
vt 0.625000 0.500000
vt 0.375000 0.500000
vt 0.625000 0.750000
vt 0.375000 0.750000
vt 0.625000 1.000000
vt 0.375000 1.000000
vt 0.125000 0.500000
vt 0.125000 0.750000
vt 0.875000 0.500000
vt 0.875000 0.750000
s 0
f 1/1/1 2/2/1 4/3/1 3/4/1
f 3/4/2 4/3/2 8/5/2 7/6/2
f 7/6/3 8/5/3 6/7/3 5/8/3
f 5/8/4 6/7/4 2/9/4 1/10/4
f 3/11/5 7/6/5 5/8/5 1/12/5
f 8/5/6 4/13/6 2/14/6 6/7/6
f 9/1/4 10/2/4 12/3/4 11/4/4
f 11/4/1 12/3/1 16/5/1 15/6/1
f 15/6/2 16/5/2 14/7/2 13/8/2
f 10/2/4 9/1/4 17/1/4 18/2/4
f 11/11/5 15/6/5 13/8/5 9/12/5
f 16/5/6 12/13/6 10/14/6 14/7/6
f 20/8/3 19/7/3 18/9/3 17/10/3
f 17/1/4 9/1/4 21/1/4 23/1/4
f 14/7/6 10/14/6 18/14/6 19/7/6
f 13/8/2 14/7/2 19/7/2 20/8/2
f 21/12/5 22/8/5 24/8/5 23/12/5
f 20/8/3 17/10/3 23/10/3 24/8/3
f 9/12/1 13/8/1 22/8/1 21/12/1
f 13/8/2 20/8/2 24/8/2 22/8/2
f 25/1/4 26/2/4 28/3/4 27/4/4
f 27/4/1 28/3/1 32/5/1 31/6/1
f 31/6/2 32/5/2 30/7/2 29/8/2
f 26/2/4 25/1/4 33/1/4 34/2/4
f 27/11/5 31/6/5 29/8/5 25/12/5
f 32/5/6 28/13/6 26/14/6 30/7/6
f 36/8/3 35/7/3 34/9/3 33/10/3
f 33/1/4 25/1/4 37/1/4 39/1/4
f 30/7/6 26/14/6 34/14/6 35/7/6
f 29/8/2 30/7/2 35/7/2 36/8/2
f 37/12/5 38/8/5 40/8/5 39/12/5
f 36/8/3 33/10/3 39/10/3 40/8/3
f 25/12/1 29/8/1 38/8/1 37/12/1
f 29/8/2 36/8/2 40/8/2 38/8/2
f 41/1/4 42/2/4 44/3/4 43/4/4
f 43/4/1 44/3/1 48/5/1 47/6/1
f 47/6/2 48/5/2 46/7/2 45/8/2
f 42/2/4 41/1/4 49/1/4 50/2/4
f 43/11/5 47/6/5 45/8/5 41/12/5
f 48/5/6 44/13/6 42/14/6 46/7/6
f 52/8/3 51/7/3 50/9/3 49/10/3
f 49/1/4 41/1/4 53/1/4 55/1/4
f 46/7/6 42/14/6 50/14/6 51/7/6
f 45/8/2 46/7/2 51/7/2 52/8/2
f 53/12/5 54/8/5 56/8/5 55/12/5
f 52/8/3 49/10/3 55/10/3 56/8/3
f 41/12/1 45/8/1 54/8/1 53/12/1
f 45/8/2 52/8/2 56/8/2 54/8/2
f 57/1/4 58/2/4 60/3/4 59/4/4
f 59/4/1 60/3/1 64/5/1 63/6/1
f 63/6/2 64/5/2 62/7/2 61/8/2
f 62/7/6 58/14/6 66/14/6 67/7/6
f 59/11/5 63/6/5 61/8/5 57/12/5
f 64/5/6 60/13/6 58/14/6 62/7/6
f 68/8/3 67/7/3 66/9/3 65/10/3
f 61/8/2 62/7/2 67/7/2 68/8/2
f 58/2/4 57/1/4 65/1/4 66/2/4
f 61/8/2 68/8/2 72/8/2 70/8/2
f 69/12/5 70/8/5 72/8/5 71/12/5
f 68/8/3 65/10/3 71/10/3 72/8/3
f 57/12/1 61/8/1 70/8/1 69/12/1
f 65/1/4 57/1/4 69/1/4 71/1/4
f 73/1/4 74/2/4 76/3/4 75/4/4
f 75/4/1 76/3/1 80/5/1 79/6/1
f 79/6/2 80/5/2 78/7/2 77/8/2
f 78/7/6 74/14/6 82/14/6 83/7/6
f 75/11/5 79/6/5 77/8/5 73/12/5
f 80/5/6 76/13/6 74/14/6 78/7/6
f 84/8/3 83/7/3 82/9/3 81/10/3
f 77/8/2 78/7/2 83/7/2 84/8/2
f 74/2/4 73/1/4 81/1/4 82/2/4
f 77/8/2 84/8/2 88/8/2 86/8/2
f 85/12/5 86/8/5 88/8/5 87/12/5
f 84/8/3 81/10/3 87/10/3 88/8/3
f 73/12/1 77/8/1 86/8/1 85/12/1
f 81/1/4 73/1/4 85/1/4 87/1/4
f 89/1/4 90/2/4 92/3/4 91/4/4
f 91/4/1 92/3/1 96/5/1 95/6/1
f 95/6/2 96/5/2 94/7/2 93/8/2
f 94/7/6 90/14/6 98/14/6 99/7/6
f 91/11/5 95/6/5 93/8/5 89/12/5
f 96/5/6 92/13/6 90/14/6 94/7/6
f 100/8/3 99/7/3 98/9/3 97/10/3
f 93/8/2 94/7/2 99/7/2 100/8/2
f 90/2/4 89/1/4 97/1/4 98/2/4
f 93/8/2 100/8/2 104/8/2 102/8/2
f 101/12/5 102/8/5 104/8/5 103/12/5
f 100/8/3 97/10/3 103/10/3 104/8/3
f 89/12/1 93/8/1 102/8/1 101/12/1
f 97/1/4 89/1/4 101/1/4 103/1/4
f 105/1/4 106/2/4 108/3/4 107/4/4
f 107/4/1 108/3/1 112/5/1 111/6/1
f 111/6/2 112/5/2 110/7/2 109/8/2
f 106/2/4 105/1/4 113/1/4 114/2/4
f 107/11/5 111/6/5 109/8/5 105/12/5
f 112/5/6 108/13/6 106/14/6 110/7/6
f 116/8/3 115/7/3 114/9/3 113/10/3
f 116/8/3 113/10/3 119/10/3 120/8/3
f 110/7/6 106/14/6 114/14/6 115/7/6
f 109/8/2 110/7/2 115/7/2 116/8/2
f 117/12/5 118/8/5 120/8/5 119/12/5
f 105/12/1 109/8/1 118/8/1 117/12/1
f 109/8/2 116/8/2 120/8/2 118/8/2
f 113/1/4 105/1/4 117/1/4 119/1/4
f 121/1/1 122/2/1 124/3/1 123/4/1
f 123/4/2 124/3/2 128/5/2 127/6/2
f 127/6/3 128/5/3 126/7/3 125/8/3
f 125/8/4 126/7/4 122/9/4 121/10/4
f 123/11/5 127/6/5 125/8/5 121/12/5
f 128/5/6 124/13/6 122/14/6 126/7/6
f 129/1/1 130/2/1 132/3/1 131/4/1
f 131/4/2 132/3/2 136/5/2 135/6/2
f 135/6/3 136/5/3 134/7/3 133/8/3
f 133/8/4 134/7/4 130/9/4 129/10/4
f 131/11/5 135/6/5 133/8/5 129/12/5
f 136/5/6 132/13/6 130/14/6 134/7/6
f 137/1/1 138/2/1 140/3/1 139/4/1
f 139/4/2 140/3/2 144/5/2 143/6/2
f 143/6/3 144/5/3 142/7/3 141/8/3
f 141/8/4 142/7/4 138/9/4 137/10/4
f 139/11/5 143/6/5 141/8/5 137/12/5
f 144/5/6 140/13/6 138/14/6 142/7/6
f 145/1/1 146/2/1 148/3/1 147/4/1
f 147/4/2 148/3/2 152/5/2 151/6/2
f 151/6/3 152/5/3 150/7/3 149/8/3
f 149/8/4 150/7/4 146/9/4 145/10/4
f 147/11/5 151/6/5 149/8/5 145/12/5
f 152/5/6 148/13/6 146/14/6 150/7/6
f 153/1/4 154/2/4 156/3/4 155/4/4
f 155/4/1 156/3/1 160/5/1 159/6/1
f 159/6/2 160/5/2 158/7/2 157/8/2
f 158/7/6 154/14/6 162/14/6 163/7/6
f 155/11/5 159/6/5 157/8/5 153/12/5
f 160/5/6 156/13/6 154/14/6 158/7/6
f 164/8/3 163/7/3 162/9/3 161/10/3
f 157/8/2 158/7/2 163/7/2 164/8/2
f 154/2/4 153/1/4 161/1/4 162/2/4
f 161/1/4 153/1/4 165/1/4 167/1/4
f 165/12/5 166/8/5 168/8/5 167/12/5
f 157/8/2 164/8/2 168/8/2 166/8/2
f 164/8/3 161/10/3 167/10/3 168/8/3
f 153/12/1 157/8/1 166/8/1 165/12/1
f 169/1/4 170/2/4 172/3/4 171/4/4
f 171/4/1 172/3/1 176/5/1 175/6/1
f 175/6/2 176/5/2 174/7/2 173/8/2
f 170/2/4 169/1/4 177/1/4 178/2/4
f 171/11/5 175/6/5 173/8/5 169/12/5
f 176/5/6 172/13/6 170/14/6 174/7/6
f 180/8/3 179/7/3 178/9/3 177/10/3
f 177/1/4 169/1/4 181/1/4 183/1/4
f 174/7/6 170/14/6 178/14/6 179/7/6
f 173/8/2 174/7/2 179/7/2 180/8/2
f 181/12/5 182/8/5 184/8/5 183/12/5
f 180/8/3 177/10/3 183/10/3 184/8/3
f 169/12/1 173/8/1 182/8/1 181/12/1
f 173/8/2 180/8/2 184/8/2 182/8/2
