# Blender 5.0.1
# www.blender.org
mtllib shelfbase.mtl
o Base_Stack
v -4.000000 -0.250000 2.000000
v -4.000000 0.250000 2.000000
v -4.000000 -0.250000 -2.000000
v -4.000000 0.250000 -2.000000
v 4.000000 -0.250000 2.000000
v 4.000000 0.250000 2.000000
v 4.000000 -0.250000 -2.000000
v 4.000000 0.250000 -2.000000
v -4.000000 0.250000 2.000000
v -4.000000 0.250000 -2.000000
v 4.000000 0.250000 2.000000
v 4.000000 0.250000 -2.000000
v -4.000000 0.550000 -2.000000
v 4.000000 0.550000 -2.000000
v -4.000000 0.250000 2.221811
v 4.000000 0.250000 2.221811
v -4.000000 0.550000 2.121811
v 4.000000 0.550000 2.121811
vn -1.0000 -0.0000 -0.0000
vn -0.0000 -0.0000 -1.0000
vn 1.0000 -0.0000 -0.0000
vn -0.0000 -0.0000 1.0000
vn -0.0000 -1.0000 -0.0000
vn -0.0000 1.0000 -0.0000
vn -0.0000 0.3162 0.9487
vt 0.375000 0.000000
vt 0.625000 0.000000
vt 0.625000 0.250000
vt 0.375000 0.250000
vt 0.625000 0.500000
vt 0.375000 0.500000
vt 0.625000 0.750000
vt 0.375000 0.750000
vt 0.625000 1.000000
vt 0.375000 1.000000
vt 0.125000 0.500000
vt 0.125000 0.750000
vt 0.875000 0.500000
vt 0.875000 0.750000
s 0
f 1/1/1 2/2/1 4/3/1 3/4/1
f 3/4/2 4/3/2 8/5/2 7/6/2
f 7/6/3 8/5/3 6/7/3 5/8/3
f 5/8/4 6/7/4 2/9/4 1/10/4
f 3/11/5 7/6/5 5/8/5 1/12/5
f 6/7/6 8/5/6 12/5/6 11/7/6
f 4/3/6 2/2/6 9/2/6 10/3/6
f 2/9/6 6/7/6 11/7/6 9/9/6
f 8/5/6 4/3/6 10/3/6 12/5/6
f 9/2/1 15/2/1 17/2/1 13/3/1 10/3/1
f 12/5/2 10/3/2 13/3/2 14/5/2
f 13/13/6 17/14/6 18/7/6 14/5/6
f 15/9/7 16/7/7 18/7/7 17/9/7
f 9/9/5 11/7/5 16/7/5 15/9/5
f 14/5/3 18/7/3 16/7/3 11/7/3 12/5/3
