# Blender 5.0.1
# www.blender.org
mtllib shelftop.mtl
o Plane
v -4.000000 0.700000 -2.028846
v 4.000000 0.700000 -2.028846
v -4.000000 0.700000 2.028846
v 4.000000 0.700000 2.028846
v -4.000000 0.700000 -2.028846
v 4.000000 0.700000 -2.028846
v -4.000000 0.700000 2.028846
v 4.000000 0.700000 2.028846
v -4.000000 0.400000 -2.028846
v 4.000000 0.400000 -2.028846
v -4.000000 0.000000 2.028846
v 4.000000 0.000000 2.028846
v -4.000000 0.700000 -2.028846
v 4.000000 0.700000 -2.028846
v -4.000000 0.400000 -2.028846
v 4.000000 0.400000 -2.028846
v -4.000000 0.700000 -2.110000
v 4.000000 0.700000 -2.110000
v -4.000000 0.400000 -2.191154
v 4.000000 0.400000 -2.191154
vn -0.0000 1.0000 -0.0000
vn -0.0000 -0.0000 1.0000
vn -0.0000 -0.9952 -0.0981
vn 1.0000 -0.0000 -0.0000
vn -1.0000 -0.0000 -0.0000
vn -0.0000 0.2611 -0.9653
vn -0.0000 -1.0000 -0.0000
vt 0.000000 0.000000
vt 0.000000 1.000000
vt 1.000000 1.000000
vt 1.000000 0.000000
s 0
f 1/1/1 3/2/1 4/3/1 2/4/1
f 8/3/2 7/2/2 11/2/2 12/3/2
f 4/3/1 3/2/1 7/2/1 8/3/1
f 1/1/1 2/4/1 6/4/1 5/1/1
f 2/4/1 4/3/1 8/3/1 6/4/1
f 3/2/1 1/1/1 5/1/1 7/2/1
f 9/1/3 10/4/3 12/3/3 11/2/3
f 6/4/1 10/4/1 16/4/1 14/4/1
f 6/4/4 8/3/4 12/3/4 10/4/4
f 7/2/5 5/1/5 9/1/5 11/2/5
f 15/1/5 13/1/5 17/1/5 19/1/5
f 5/1/1 6/4/1 14/4/1 13/1/1
f 9/1/1 5/1/1 13/1/1 15/1/1
f 10/4/1 9/1/1 15/1/1 16/4/1
f 17/1/6 18/4/6 20/4/6 19/1/6
f 16/4/7 15/1/7 19/1/7 20/4/7
f 14/4/4 16/4/4 20/4/4 18/4/4
f 13/1/1 14/4/1 18/4/1 17/1/1
