# Blender 5.0.1
# www.blender.org
mtllib shoppingcart.mtl
o Cube
v 0.884072 1.885166 -0.901106
v 1.000000 0.400000 -1.000000
v -0.884072 1.885166 -0.901106
v -1.000000 0.400000 -1.000000
v 1.000000 1.900000 -1.000000
v -1.000000 1.900000 -1.000000
v 1.000000 1.900000 -1.000000
v -1.000000 1.900000 -1.000000
v 0.884072 0.485166 -0.901106
v -0.884072 0.485166 -0.901106
v 0.623011 1.624105 0.839298
v 0.551240 1.614834 0.901106
v -0.551240 1.614834 0.901106
v -0.623011 1.624105 0.839298
v 0.551240 0.584834 0.901106
v 0.623011 0.581416 0.839298
v -0.623011 0.581416 0.839298
v -0.551240 0.584834 0.901106
v -0.575000 0.500000 1.000000
v -0.718543 0.493819 0.876383
v -0.718543 1.618543 0.876383
v -0.575000 1.600000 1.000000
v 0.718543 0.493819 0.876383
v 0.575000 0.500000 1.000000
v 0.575000 1.600000 1.000000
v 0.718543 1.618543 0.876383
vn -0.0000 -0.0000 -1.0000
vn -0.0000 1.0000 -0.0000
vn -0.0000 0.9889 0.1483
vn -0.0000 -0.0000 1.0000
vn 0.6526 -0.0000 -0.7577
vn -0.6526 -0.0000 -0.7577
vn -0.9889 -0.0000 -0.1483
vn 0.9889 -0.0000 -0.1483
vn -0.0000 0.9985 -0.0552
vn -0.6526 -0.0000 0.7577
vn -0.9889 -0.0000 0.1483
vn 0.6526 -0.0000 0.7577
vn 0.9889 -0.0000 0.1483
vn -0.0000 -0.9988 0.0499
vt 0.375000 0.250000
vt 0.625000 0.250000
vt 0.625000 0.500000
vt 0.375000 0.500000
vt 0.875000 0.500000
vt 0.861683 0.512362
vt 0.638317 0.512362
vt 0.641687 0.729912
vt 0.650074 0.737925
vt 0.847176 0.737638
vt 0.858692 0.731844
vt 0.625000 1.000000
vt 0.852679 0.750000
vt 0.630580 0.766741
vt 0.625000 0.738411
vt 0.847176 0.737638
vt 0.858314 0.729912
vt 0.652824 0.737638
vt 0.375000 0.977679
vt 0.625000 0.977679
vt 0.375000 1.000000
vt 0.375000 0.015452
vt 0.625000 0.015452
vt 0.367560 0.764881
vt 0.375000 0.734548
vt 0.125000 0.500000
vt 0.147321 0.750000
vt 0.125000 0.734548
s 0
usemtl Material
f 4/1/1 6/2/1 5/3/1 2/4/1
f 8/5/2 7/3/2 5/3/2 6/5/2
f 3/6/3 1/7/3 7/3/3 8/5/3
f 1/7/4 3/6/4 10/6/4 9/7/4
f 1/7/3 11/8/3 12/9/3 13/10/3 14/11/3 3/6/3 8/5/3 6/5/3 21/12/3 22/13/3 25/14/3 26/15/3 7/3/3
f 13/10/5 18/16/5 17/17/5 14/11/5
f 11/8/6 16/8/6 15/18/6 12/9/6
f 13/10/1 12/9/1 15/18/1 18/16/1
f 11/8/7 1/7/7 9/7/7 16/8/7
f 3/6/8 14/11/8 17/17/8 10/6/8
f 9/7/9 10/6/9 17/17/9 18/16/9 15/18/9 16/8/9
f 19/19/10 22/20/10 21/12/10 20/21/10
f 20/22/11 21/23/11 6/2/11 4/1/11
f 25/14/12 24/24/12 23/25/12 26/15/12
f 24/24/4 25/14/4 22/20/4 19/19/4
f 2/4/13 5/3/13 26/15/13 23/25/13
f 4/26/14 2/4/14 23/25/14 24/24/14 19/27/14 20/28/14
f 7/3/2 26/15/2 5/3/2
o Cube.001
v -1.000000 1.700000 -1.200000
v -1.000000 1.900000 -1.200000
v 1.000000 1.700000 -1.200000
v 1.000000 1.900000 -1.200000
v -1.000000 1.750000 -1.400000
v -1.000000 1.700000 -1.350000
v -1.000000 1.900000 -1.350000
v -1.000000 1.850000 -1.400000
v 1.000000 1.700000 -1.350000
v 1.000000 1.750000 -1.400000
v 1.000000 1.850000 -1.400000
v 1.000000 1.900000 -1.350000
vn -0.0000 -0.0000 1.0000
vn -0.0000 -0.7071 -0.7071
vn -0.0000 0.7071 -0.7071
vn -0.0000 -1.0000 -0.0000
vn -1.0000 -0.0000 -0.0000
vn -0.0000 -0.0000 -1.0000
vn -0.0000 1.0000 -0.0000
vn 1.0000 -0.0000 -0.0000
vt 0.375000 0.750000
vt 0.625000 0.750000
vt 0.625000 1.000000
vt 0.375000 1.000000
vt 0.375000 0.562500
vt 0.125000 0.562500
vt 0.125000 0.500000
vt 0.416667 0.500000
vt 0.625000 0.218750
vt 0.625000 0.541667
vt 0.562500 0.500000
vt 0.562500 0.250000
vt 0.125000 0.750000
vt 0.375000 0.000000
vt 0.625000 0.000000
vt 0.437500 0.250000
vt 0.375000 0.187500
vt 0.875000 0.562500
vt 0.875000 0.750000
s 0
f 29/29/15 30/30/15 28/31/15 27/32/15
f 35/33/16 32/34/16 31/35/16 36/36/16
f 33/37/17 38/38/17 37/39/17 34/40/17
f 32/34/18 35/33/18 29/29/18 27/41/18
f 27/42/19 28/43/19 33/37/19 34/40/19 31/44/19 32/45/19
f 31/44/20 34/40/20 37/39/20 36/36/20
f 38/38/21 33/46/21 28/47/21 30/30/21
f 35/33/22 36/36/22 37/39/22 38/38/22 30/30/22 29/29/22
o Cube.002
v -1.000000 1.700000 -1.000000
v -1.000000 1.900000 -1.000000
v -1.000000 1.700000 -1.200000
v -1.000000 1.900000 -1.200000
v -0.800000 1.700000 -1.000000
v -0.800000 1.900000 -1.000000
v -0.800000 1.700000 -1.200000
v -0.800000 1.900000 -1.200000
vn -1.0000 -0.0000 -0.0000
vn -0.0000 -0.0000 -1.0000
vn 1.0000 -0.0000 -0.0000
vn -0.0000 -0.0000 1.0000
vn -0.0000 -1.0000 -0.0000
vn -0.0000 1.0000 -0.0000
vt 0.375000 0.000000
vt 0.625000 0.000000
vt 0.625000 0.250000
vt 0.375000 0.250000
vt 0.625000 0.500000
vt 0.375000 0.500000
vt 0.625000 0.750000
vt 0.375000 0.750000
vt 0.625000 1.000000
vt 0.375000 1.000000
vt 0.125000 0.500000
vt 0.125000 0.750000
vt 0.875000 0.500000
vt 0.875000 0.750000
s 0
f 39/48/23 40/49/23 42/50/23 41/51/23
f 41/51/24 42/50/24 46/52/24 45/53/24
f 45/53/25 46/52/25 44/54/25 43/55/25
f 43/55/26 44/54/26 40/56/26 39/57/26
f 41/58/27 45/53/27 43/55/27 39/59/27
f 46/52/28 42/60/28 40/61/28 44/54/28
o Cube.003
v 0.800000 1.700000 -1.000000
v 0.800000 1.900000 -1.000000
v 0.800000 1.700000 -1.200000
v 0.800000 1.900000 -1.200000
v 1.000000 1.700000 -1.000000
v 1.000000 1.900000 -1.000000
v 1.000000 1.700000 -1.200000
v 1.000000 1.900000 -1.200000
vn -1.0000 -0.0000 -0.0000
vn -0.0000 -0.0000 -1.0000
vn 1.0000 -0.0000 -0.0000
vn -0.0000 -0.0000 1.0000
vn -0.0000 -1.0000 -0.0000
vn -0.0000 1.0000 -0.0000
vt 0.375000 0.000000
vt 0.625000 0.000000
vt 0.625000 0.250000
vt 0.375000 0.250000
vt 0.625000 0.500000
vt 0.375000 0.500000
vt 0.625000 0.750000
vt 0.375000 0.750000
vt 0.625000 1.000000
vt 0.375000 1.000000
vt 0.125000 0.500000
vt 0.125000 0.750000
vt 0.875000 0.500000
vt 0.875000 0.750000
s 0
f 47/62/29 48/63/29 50/64/29 49/65/29
f 49/65/30 50/64/30 54/66/30 53/67/30
f 53/67/31 54/66/31 52/68/31 51/69/31
f 51/69/32 52/68/32 48/70/32 47/71/32
f 49/72/33 53/67/33 51/69/33 47/73/33
f 54/66/34 50/74/34 48/75/34 52/68/34
o Cube.004
v 0.760000 0.100000 -0.790000
v 0.760000 0.420000 -0.790000
v 0.790000 0.420000 -0.990000
v 0.960000 0.100000 -0.790000
v 0.960000 0.420000 -0.790000
v 0.990000 0.420000 -0.990000
v 0.790000 0.260000 -0.990000
v 0.990000 0.260000 -0.990000
v 0.490000 0.100000 0.990000
v 0.490000 0.260000 0.990000
v 0.565000 0.260000 0.990000
v 0.708746 0.260000 0.866414
v 0.708746 0.100000 0.866414
v 0.565000 0.100000 0.990000
v 0.790000 0.200000 -0.990000
v 0.775000 0.100000 -0.890000
v 0.975000 0.100000 -0.890000
v 0.990000 0.200000 -0.990000
v 0.752416 0.260000 -0.740000
v 0.760000 0.310000 -0.790000
v 0.767417 0.260000 -0.839447
v 0.760000 0.210000 -0.790000
v 0.960000 0.310000 -0.790000
v 0.952416 0.260000 -0.740000
v 0.960000 0.210000 -0.790000
v 0.967417 0.260000 -0.839447
vn -0.0000 -0.0000 -1.0000
vn -0.0000 1.0000 -0.0000
vn 0.6519 -0.0000 0.7583
vn -0.0000 -0.0000 1.0000
vn -0.0000 -1.0000 -0.0000
vn -0.0000 -0.7071 -0.7071
vn -0.9888 -0.0000 -0.1492
vn 0.9888 -0.0000 0.1492
vn -0.0000 0.7071 0.7071
vn -0.9889 -0.0000 -0.1483
vn -0.9887 -0.0000 -0.1500
vn 0.9889 -0.0000 0.1483
vn 0.9887 -0.0000 0.1500
vt 0.500000 0.250000
vt 0.625000 0.250000
vt 0.625000 0.500000
vt 0.500000 0.500000
vt 0.875000 0.500000
vt 0.875000 0.750000
vt 0.625000 0.750000
vt 0.500000 0.906250
vt 0.322917 0.854167
vt 0.375000 0.750000
vt 0.500000 0.750000
vt 0.500000 1.000000
vt 0.375000 1.000000
vt 0.125000 0.750000
vt 0.375000 0.625000
vt 0.125000 0.625000
vt 0.125000 0.500000
vt 0.427083 0.500000
vt 0.453125 0.250000
vt 0.500000 0.000000
vt 0.519531 0.000000
vt 0.500000 0.041206
vt 0.460938 0.000000
vt 0.539062 0.750000
vt 0.500000 0.752370
vt 0.460938 0.750000
vt 0.500000 0.688191
vt 0.539062 1.000000
vt 0.625000 1.000000
vt 0.375000 0.000000
vt 0.375000 0.125000
vt 0.625000 0.000000
s 0
f 61/76/35 57/77/35 60/78/35 62/79/35
f 60/78/36 57/80/36 56/81/36 59/82/36
f 65/83/37 68/84/37 67/85/37 66/86/37
f 68/84/38 65/83/38 64/87/38 63/88/38
f 55/89/39 58/85/39 67/85/39 68/84/39 63/89/39
f 71/90/40 70/91/40 69/92/40 72/93/40
f 69/94/35 61/76/35 62/79/35 72/93/35
f 70/91/39 71/90/39 58/85/39 55/89/39
f 73/95/41 74/96/41 75/97/41 76/98/41
f 77/99/42 78/100/42 79/101/42 80/102/42
f 77/99/43 74/103/43 73/87/43 78/100/43
f 77/99/38 59/82/38 56/104/38 74/103/38
f 55/105/44 76/98/44 75/97/44 61/76/44 69/94/44 70/106/44
f 78/100/36 73/87/36 64/87/36 65/83/36 66/86/36
f 75/97/44 74/96/44 56/107/44 57/77/44 61/76/44
f 73/95/45 76/98/45 55/105/45 63/105/45 64/95/45
f 71/90/46 72/93/46 62/79/46 80/102/46 79/101/46 58/85/46
f 62/79/46 60/78/46 59/82/46 77/99/46 80/102/46
f 58/85/47 79/101/47 78/100/47 66/86/47 67/85/47
o Cube.005
v -0.760000 0.100000 -0.790000
v -0.760000 0.420000 -0.790000
v -0.790000 0.420000 -0.990000
v -0.960000 0.100000 -0.790000
v -0.960000 0.420000 -0.790000
v -0.990000 0.420000 -0.990000
v -0.790000 0.260000 -0.990000
v -0.990000 0.260000 -0.990000
v -0.490000 0.100000 0.990000
v -0.490000 0.260000 0.990000
v -0.565000 0.260000 0.990000
v -0.708746 0.260000 0.866414
v -0.708746 0.100000 0.866414
v -0.565000 0.100000 0.990000
v -0.790000 0.200000 -0.990000
v -0.775000 0.100000 -0.890000
v -0.975000 0.100000 -0.890000
v -0.990000 0.200000 -0.990000
v -0.752416 0.260000 -0.740000
v -0.760000 0.310000 -0.790000
v -0.767417 0.260000 -0.839447
v -0.760000 0.210000 -0.790000
v -0.960000 0.310000 -0.790000
v -0.952416 0.260000 -0.740000
v -0.960000 0.210000 -0.790000
v -0.967417 0.260000 -0.839447
vn -0.0000 -0.0000 -1.0000
vn -0.0000 1.0000 -0.0000
vn -0.6519 -0.0000 0.7583
vn -0.0000 -0.0000 1.0000
vn -0.0000 -1.0000 -0.0000
vn -0.0000 -0.7071 -0.7071
vn 0.9888 -0.0000 -0.1492
vn -0.9888 -0.0000 0.1492
vn -0.0000 0.7071 0.7071
vn 0.9889 -0.0000 -0.1483
vn 0.9887 -0.0000 -0.1500
vn -0.9889 -0.0000 0.1483
vn -0.9887 -0.0000 0.1500
vt 0.500000 0.250000
vt 0.625000 0.250000
vt 0.625000 0.500000
vt 0.500000 0.500000
vt 0.875000 0.500000
vt 0.875000 0.750000
vt 0.625000 0.750000
vt 0.500000 0.906250
vt 0.322917 0.854167
vt 0.375000 0.750000
vt 0.500000 0.750000
vt 0.500000 1.000000
vt 0.375000 1.000000
vt 0.125000 0.750000
vt 0.375000 0.625000
vt 0.125000 0.625000
vt 0.125000 0.500000
vt 0.427083 0.500000
vt 0.453125 0.250000
vt 0.500000 0.000000
vt 0.519531 0.000000
vt 0.500000 0.041206
vt 0.460938 0.000000
vt 0.539062 0.750000
vt 0.500000 0.752370
vt 0.460938 0.750000
vt 0.500000 0.688191
vt 0.539062 1.000000
vt 0.625000 1.000000
vt 0.375000 0.000000
vt 0.375000 0.125000
vt 0.625000 0.000000
s 0
f 87/108/48 88/111/48 86/110/48 83/109/48
f 86/110/49 85/114/49 82/113/49 83/112/49
f 91/115/50 92/118/50 93/117/50 94/116/50
f 94/116/51 89/120/51 90/119/51 91/115/51
f 81/121/52 89/121/52 94/116/52 93/117/52 84/117/52
f 97/122/53 98/125/53 95/124/53 96/123/53
f 95/126/48 98/125/48 88/111/48 87/108/48
f 96/123/52 81/121/52 84/117/52 97/122/52
f 99/127/54 102/130/54 101/129/54 100/128/54
f 103/131/55 106/134/55 105/133/55 104/132/55
f 103/131/56 104/132/56 99/119/56 100/135/56
f 103/131/51 100/135/51 82/136/51 85/114/51
f 81/137/57 96/138/57 95/126/57 87/108/57 101/129/57 102/130/57
f 104/132/49 92/118/49 91/115/49 90/119/49 99/119/49
f 101/129/57 87/108/57 83/109/57 82/139/57 100/128/57
f 99/127/58 90/127/58 89/137/58 81/137/58 102/130/58
f 97/122/59 84/117/59 105/133/59 106/134/59 88/111/59 98/125/59
f 88/111/59 106/134/59 103/131/59 85/114/59 86/110/59
f 84/117/60 93/117/60 92/118/60 104/132/60 105/133/60
o Cube.006
v -0.528000 0.100000 0.990000
v -0.528000 0.260000 0.990000
v -0.528000 0.100000 0.830000
v -0.528000 0.260000 0.830000
v 0.528000 0.100000 0.990000
v 0.528000 0.260000 0.990000
v 0.528000 0.100000 0.830000
v 0.528000 0.260000 0.830000
vn -1.0000 -0.0000 -0.0000
vn -0.0000 -0.0000 -1.0000
vn 1.0000 -0.0000 -0.0000
vn -0.0000 -0.0000 1.0000
vn -0.0000 -1.0000 -0.0000
vn -0.0000 1.0000 -0.0000
vt 0.375000 0.000000
vt 0.625000 0.000000
vt 0.625000 0.250000
vt 0.375000 0.250000
vt 0.625000 0.500000
vt 0.375000 0.500000
vt 0.625000 0.750000
vt 0.375000 0.750000
vt 0.625000 1.000000
vt 0.375000 1.000000
vt 0.125000 0.500000
vt 0.125000 0.750000
vt 0.875000 0.500000
vt 0.875000 0.750000
s 0
f 107/140/61 108/141/61 110/142/61 109/143/61
f 109/143/62 110/142/62 114/144/62 113/145/62
f 113/145/63 114/144/63 112/146/63 111/147/63
f 111/147/64 112/146/64 108/148/64 107/149/64
f 109/150/65 113/145/65 111/147/65 107/151/65
f 114/144/66 110/152/66 108/153/66 112/146/66
o Cylinder
v 0.950000 0.100000 -1.000000
v 1.050000 0.100000 -1.000000
v 0.950000 -0.041421 -0.941421
v 1.050000 -0.041421 -0.941421
v 0.950000 -0.100000 -0.800000
v 1.050000 -0.100000 -0.800000
v 0.950000 -0.041421 -0.658579
v 1.050000 -0.041421 -0.658579
v 0.950000 0.100000 -0.600000
v 1.050000 0.100000 -0.600000
v 0.950000 0.241421 -0.658579
v 1.050000 0.241421 -0.658579
v 0.950000 0.300000 -0.800000
v 1.050000 0.300000 -0.800000
v 0.950000 0.241421 -0.941421
v 1.050000 0.241421 -0.941421
vn -0.0000 -0.3827 -0.9239
vn -0.0000 -0.9239 -0.3827
vn -0.0000 -0.9239 0.3827
vn -0.0000 -0.3827 0.9239
vn -0.0000 0.3827 0.9239
vn -0.0000 0.9239 0.3827
vn 1.0000 -0.0000 -0.0000
vn -0.0000 0.9239 -0.3827
vn -0.0000 0.3827 -0.9239
vn -1.0000 -0.0000 -0.0000
vt 1.000000 0.500000
vt 1.000000 1.000000
vt 0.875000 1.000000
vt 0.875000 0.500000
vt 0.750000 1.000000
vt 0.750000 0.500000
vt 0.625000 1.000000
vt 0.625000 0.500000
vt 0.500000 1.000000
vt 0.500000 0.500000
vt 0.375000 1.000000
vt 0.375000 0.500000
vt 0.250000 1.000000
vt 0.250000 0.500000
vt 0.419706 0.419706
vt 0.250000 0.490000
vt 0.080294 0.419706
vt 0.010000 0.250000
vt 0.080294 0.080294
vt 0.250000 0.010000
vt 0.419706 0.080294
vt 0.490000 0.250000
vt 0.125000 1.000000
vt 0.125000 0.500000
vt 0.000000 1.000000
vt 0.000000 0.500000
vt 0.750000 0.490000
vt 0.919706 0.419706
vt 0.990000 0.250000
vt 0.919706 0.080294
vt 0.750000 0.010000
vt 0.580294 0.080294
vt 0.510000 0.250000
vt 0.580294 0.419706
s 0
f 115/154/67 116/155/67 118/156/67 117/157/67
f 117/157/68 118/156/68 120/158/68 119/159/68
f 119/159/69 120/158/69 122/160/69 121/161/69
f 121/161/70 122/160/70 124/162/70 123/163/70
f 123/163/71 124/162/71 126/164/71 125/165/71
f 125/165/72 126/164/72 128/166/72 127/167/72
f 118/168/73 116/169/73 130/170/73 128/171/73 126/172/73 124/173/73 122/174/73 120/175/73
f 127/167/74 128/166/74 130/176/74 129/177/74
f 129/177/75 130/176/75 116/178/75 115/179/75
f 115/180/76 117/181/76 119/182/76 121/183/76 123/184/76 125/185/76 127/186/76 129/187/76
o Cylinder.001
v -1.050000 0.100000 -1.000000
v -0.950000 0.100000 -1.000000
v -1.050000 -0.041421 -0.941421
v -0.950000 -0.041421 -0.941421
v -1.050000 -0.100000 -0.800000
v -0.950000 -0.100000 -0.800000
v -1.050000 -0.041421 -0.658579
v -0.950000 -0.041421 -0.658579
v -1.050000 0.100000 -0.600000
v -0.950000 0.100000 -0.600000
v -1.050000 0.241421 -0.658579
v -0.950000 0.241421 -0.658579
v -1.050000 0.300000 -0.800000
v -0.950000 0.300000 -0.800000
v -1.050000 0.241421 -0.941421
v -0.950000 0.241421 -0.941421
vn -0.0000 -0.3827 -0.9239
vn -0.0000 -0.9239 -0.3827
vn -0.0000 -0.9239 0.3827
vn -0.0000 -0.3827 0.9239
vn -0.0000 0.3827 0.9239
vn -0.0000 0.9239 0.3827
vn 1.0000 -0.0000 -0.0000
vn -0.0000 0.9239 -0.3827
vn -0.0000 0.3827 -0.9239
vn -1.0000 -0.0000 -0.0000
vt 1.000000 0.500000
vt 1.000000 1.000000
vt 0.875000 1.000000
vt 0.875000 0.500000
vt 0.750000 1.000000
vt 0.750000 0.500000
vt 0.625000 1.000000
vt 0.625000 0.500000
vt 0.500000 1.000000
vt 0.500000 0.500000
vt 0.375000 1.000000
vt 0.375000 0.500000
vt 0.250000 1.000000
vt 0.250000 0.500000
vt 0.419706 0.419706
vt 0.250000 0.490000
vt 0.080294 0.419706
vt 0.010000 0.250000
vt 0.080294 0.080294
vt 0.250000 0.010000
vt 0.419706 0.080294
vt 0.490000 0.250000
vt 0.125000 1.000000
vt 0.125000 0.500000
vt 0.000000 1.000000
vt 0.000000 0.500000
vt 0.750000 0.490000
vt 0.919706 0.419706
vt 0.990000 0.250000
vt 0.919706 0.080294
vt 0.750000 0.010000
vt 0.580294 0.080294
vt 0.510000 0.250000
vt 0.580294 0.419706
s 0
f 131/188/77 132/189/77 134/190/77 133/191/77
f 133/191/78 134/190/78 136/192/78 135/193/78
f 135/193/79 136/192/79 138/194/79 137/195/79
f 137/195/80 138/194/80 140/196/80 139/197/80
f 139/197/81 140/196/81 142/198/81 141/199/81
f 141/199/82 142/198/82 144/200/82 143/201/82
f 134/202/83 132/203/83 146/204/83 144/205/83 142/206/83 140/207/83 138/208/83 136/209/83
f 143/201/84 144/200/84 146/210/84 145/211/84
f 145/211/85 146/210/85 132/212/85 131/213/85
f 131/214/86 133/215/86 135/216/86 137/217/86 139/218/86 141/219/86 143/220/86 145/221/86
o Cylinder.002
v 0.750000 0.100000 0.500000
v 0.850000 0.100000 0.500000
v 0.750000 -0.041421 0.558579
v 0.850000 -0.041421 0.558579
v 0.750000 -0.100000 0.700000
v 0.850000 -0.100000 0.700000
v 0.750000 -0.041421 0.841421
v 0.850000 -0.041421 0.841421
v 0.750000 0.100000 0.900000
v 0.850000 0.100000 0.900000
v 0.750000 0.241421 0.841421
v 0.850000 0.241421 0.841421
v 0.750000 0.300000 0.700000
v 0.850000 0.300000 0.700000
v 0.750000 0.241421 0.558579
v 0.850000 0.241421 0.558579
vn -0.0000 -0.3827 -0.9239
vn -0.0000 -0.9239 -0.3827
vn -0.0000 -0.9239 0.3827
vn -0.0000 -0.3827 0.9239
vn -0.0000 0.3827 0.9239
vn -0.0000 0.9239 0.3827
vn 1.0000 -0.0000 -0.0000
vn -0.0000 0.9239 -0.3827
vn -0.0000 0.3827 -0.9239
vn -1.0000 -0.0000 -0.0000
vt 1.000000 0.500000
vt 1.000000 1.000000
vt 0.875000 1.000000
vt 0.875000 0.500000
vt 0.750000 1.000000
vt 0.750000 0.500000
vt 0.625000 1.000000
vt 0.625000 0.500000
vt 0.500000 1.000000
vt 0.500000 0.500000
vt 0.375000 1.000000
vt 0.375000 0.500000
vt 0.250000 1.000000
vt 0.250000 0.500000
vt 0.419706 0.419706
vt 0.250000 0.490000
vt 0.080294 0.419706
vt 0.010000 0.250000
vt 0.080294 0.080294
vt 0.250000 0.010000
vt 0.419706 0.080294
vt 0.490000 0.250000
vt 0.125000 1.000000
vt 0.125000 0.500000
vt 0.000000 1.000000
vt 0.000000 0.500000
vt 0.750000 0.490000
vt 0.919706 0.419706
vt 0.990000 0.250000
vt 0.919706 0.080294
vt 0.750000 0.010000
vt 0.580294 0.080294
vt 0.510000 0.250000
vt 0.580294 0.419706
s 0
f 147/222/87 148/223/87 150/224/87 149/225/87
f 149/225/88 150/224/88 152/226/88 151/227/88
f 151/227/89 152/226/89 154/228/89 153/229/89
f 153/229/90 154/228/90 156/230/90 155/231/90
f 155/231/91 156/230/91 158/232/91 157/233/91
f 157/233/92 158/232/92 160/234/92 159/235/92
f 150/236/93 148/237/93 162/238/93 160/239/93 158/240/93 156/241/93 154/242/93 152/243/93
f 159/235/94 160/234/94 162/244/94 161/245/94
f 161/245/95 162/244/95 148/246/95 147/247/95
f 147/248/96 149/249/96 151/250/96 153/251/96 155/252/96 157/253/96 159/254/96 161/255/96
o Cylinder.003
v -0.850000 0.100000 0.500000
v -0.750000 0.100000 0.500000
v -0.850000 -0.041421 0.558579
v -0.750000 -0.041421 0.558579
v -0.850000 -0.100000 0.700000
v -0.750000 -0.100000 0.700000
v -0.850000 -0.041421 0.841421
v -0.750000 -0.041421 0.841421
v -0.850000 0.100000 0.900000
v -0.750000 0.100000 0.900000
v -0.850000 0.241421 0.841421
v -0.750000 0.241421 0.841421
v -0.850000 0.300000 0.700000
v -0.750000 0.300000 0.700000
v -0.850000 0.241421 0.558579
v -0.750000 0.241421 0.558579
vn -0.0000 -0.3827 -0.9239
vn -0.0000 -0.9239 -0.3827
vn -0.0000 -0.9239 0.3827
vn -0.0000 -0.3827 0.9239
vn -0.0000 0.3827 0.9239
vn -0.0000 0.9239 0.3827
vn 1.0000 -0.0000 -0.0000
vn -0.0000 0.9239 -0.3827
vn -0.0000 0.3827 -0.9239
vn -1.0000 -0.0000 -0.0000
vt 1.000000 0.500000
vt 1.000000 1.000000
vt 0.875000 1.000000
vt 0.875000 0.500000
vt 0.750000 1.000000
vt 0.750000 0.500000
vt 0.625000 1.000000
vt 0.625000 0.500000
vt 0.500000 1.000000
vt 0.500000 0.500000
vt 0.375000 1.000000
vt 0.375000 0.500000
vt 0.250000 1.000000
vt 0.250000 0.500000
vt 0.419706 0.419706
vt 0.250000 0.490000
vt 0.080294 0.419706
vt 0.010000 0.250000
vt 0.080294 0.080294
vt 0.250000 0.010000
vt 0.419706 0.080294
vt 0.490000 0.250000
vt 0.125000 1.000000
vt 0.125000 0.500000
vt 0.000000 1.000000
vt 0.000000 0.500000
vt 0.750000 0.490000
vt 0.919706 0.419706
vt 0.990000 0.250000
vt 0.919706 0.080294
vt 0.750000 0.010000
vt 0.580294 0.080294
vt 0.510000 0.250000
vt 0.580294 0.419706
s 0
f 163/256/97 164/257/97 166/258/97 165/259/97
f 165/259/98 166/258/98 168/260/98 167/261/98
f 167/261/99 168/260/99 170/262/99 169/263/99
f 169/263/100 170/262/100 172/264/100 171/265/100
f 171/265/101 172/264/101 174/266/101 173/267/101
f 173/267/102 174/266/102 176/268/102 175/269/102
f 166/270/103 164/271/103 178/272/103 176/273/103 174/274/103 172/275/103 170/276/103 168/277/103
f 175/269/104 176/268/104 178/278/104 177/279/104
f 177/279/105 178/278/105 164/280/105 163/281/105
f 163/282/106 165/283/106 167/284/106 169/285/106 171/286/106 173/287/106 175/288/106 177/289/106
