# Blender 5.0.1
# www.blender.org
mtllib nail.mtl
o Cylinder
v -0.000000 -1.000000 -0.000000
v 0.000000 1.000000 -0.150000
v -0.263231 1.000000 0.060081
v 0.117275 1.000000 -0.093523
v -0.117149 1.000000 0.243262
v 0.146239 1.000000 0.033378
v 0.117149 1.000000 0.243262
v 0.065083 1.000000 0.135145
v 0.263231 1.000000 0.060081
v -0.065083 1.000000 0.135145
v 0.000000 1.000000 -0.270000
v -0.146239 1.000000 0.033378
v 0.211095 1.000000 -0.168342
v -0.117275 1.000000 -0.093523
v -0.211095 1.000000 -0.168342
v 0.000000 1.100000 -0.270000
v -0.211095 1.100000 -0.168342
v -0.263231 1.100000 0.060081
v -0.117149 1.100000 0.243262
v 0.117149 1.100000 0.243262
v 0.263231 1.100000 0.060081
v 0.211095 1.100000 -0.168342
vn 0.4329 -0.0674 -0.8989
vn 0.9727 -0.0674 -0.2220
vn 0.7801 -0.0674 0.6221
vn -0.0000 -0.0674 0.9977
vn -0.7801 -0.0674 0.6221
vn -0.0000 -1.0000 -0.0000
vn -0.9727 -0.0674 -0.2220
vn -0.4329 -0.0674 -0.8989
vn -0.0000 -0.0000 1.0000
vn -0.0000 1.0000 -0.0000
vn -0.7818 -0.0000 0.6235
vn 0.4339 -0.0000 -0.9010
vn 0.7818 -0.0000 0.6235
vn -0.9749 -0.0000 -0.2225
vn -0.4339 -0.0000 -0.9010
vn 0.9749 -0.0000 -0.2225
vt 1.000000 0.500000
vt 1.000000 1.000000
vt 0.857143 1.000000
vt 0.857143 0.500000
vt 0.714286 1.000000
vt 0.714286 0.500000
vt 0.571429 1.000000
vt 0.571429 0.500000
vt 0.428571 1.000000
vt 0.428571 0.500000
vt 0.285714 1.000000
vt 0.285714 0.500000
vt 0.142857 1.000000
vt 0.142857 0.500000
vt 0.000000 1.000000
vt 0.437640 0.399638
vt 0.250000 0.490000
vt 0.062360 0.399638
vt 0.016017 0.196595
vt 0.145868 0.033767
vt 0.354132 0.033767
vt 0.483983 0.196595
s 0
f 1/1/1 2/2/1 4/3/1
f 1/4/2 4/3/2 6/5/2
f 1/6/3 6/5/3 8/7/3
f 1/8/4 8/7/4 10/9/4
f 1/10/5 10/9/5 12/11/5
f 8/7/6 6/5/6 9/5/6 7/7/6
f 1/12/7 12/11/7 14/13/7
f 1/14/8 14/13/8 2/15/8
f 6/5/6 4/3/6 13/3/6 9/5/6
f 2/15/6 14/13/6 15/13/6 11/15/6
f 10/9/6 8/7/6 7/7/6 5/9/6
f 14/13/6 12/11/6 3/11/6 15/13/6
f 5/9/9 7/7/9 20/7/9 19/9/9
f 12/11/6 10/9/6 5/9/6 3/11/6
f 4/3/6 2/2/6 11/2/6 13/3/6
f 22/16/10 16/17/10 17/18/10 18/19/10 19/20/10 20/21/10 21/22/10
f 3/11/11 5/9/11 19/9/11 18/11/11
f 13/3/12 11/2/12 16/2/12 22/3/12
f 7/7/13 9/5/13 21/5/13 20/7/13
f 15/13/14 3/11/14 18/11/14 17/13/14
f 11/15/15 15/13/15 17/13/15 16/15/15
f 9/5/16 13/3/16 22/3/16 21/5/16
