# Blender 5.0.1
# www.blender.org
mtllib Conveyor.mtl
o Belt
v -1.000000 -0.150000 4.000000
v -1.000000 0.000000 -1.154226
v -1.000000 0.150000 4.000000
v 1.000000 0.000000 -1.154226
v -1.000000 -0.150000 -0.992574
v -1.000000 -0.100240 -1.112705
v -1.000000 0.150000 -0.992574
v 1.000000 -0.100240 -1.112705
v 1.000000 -0.150000 4.000000
v 1.000000 0.150000 4.000000
v 1.000000 -0.150000 -0.992574
v 1.000000 0.150000 -0.992574
v -1.000000 0.100240 -1.112705
v 1.000000 0.100240 -1.112705
v -1.000000 -0.250000 4.000000
v -1.000000 -0.250000 -1.012465
v -1.000000 0.250000 4.000000
v -1.000000 0.250000 -1.012465
v -1.000000 0.000000 -1.262466
v -1.000000 -0.176777 -1.189242
v -1.000000 0.176777 -1.189242
v 1.000000 0.250000 4.000000
v 1.000000 0.250000 -1.012465
v 1.000000 -0.250000 4.000000
v 1.000000 -0.250000 -1.012465
v 1.000000 0.000000 -1.262466
v 1.000000 -0.176777 -1.189242
v 1.000000 0.176777 -1.189242
vn -0.0000 -1.0000 -0.0000
vn -0.0000 1.0000 -0.0000
vn -0.0000 -0.3827 -0.9239
vn -0.0000 -0.9239 -0.3827
vn -0.0000 0.9239 -0.3827
vn -0.0000 0.3827 -0.9239
vn -1.0000 -0.0000 -0.0000
vn 1.0000 -0.0000 -0.0000
vn -0.0000 -0.0000 1.0000
vn -0.0000 0.9239 0.3827
vn -0.0000 0.3827 0.9239
vn -0.0000 -0.3827 0.9239
vn -0.0000 -0.9239 0.3827
vt 0.125000 0.500000
vt 0.375000 0.500000
vt 0.375000 0.750000
vt 0.125000 0.750000
vt 0.625000 0.500000
vt 0.875000 0.500000
vt 0.875000 0.750000
vt 0.625000 0.750000
vt 1.000000 0.500000
vt 1.000000 1.000000
vt 0.875000 1.000000
vt 0.750000 1.000000
vt 0.750000 0.500000
vt 0.250000 0.500000
vt 0.250000 1.000000
vt 0.125000 1.000000
vt 0.000000 1.000000
vt 0.000000 0.500000
vt 0.430796 0.012969
vt 0.502088 0.292401
vt 0.375000 0.250000
vt 0.375000 0.000000
vt 0.814029 0.292401
vt 0.587150 0.012969
vt 0.625000 0.000000
vt 0.990000 0.250000
vt 0.598090 0.377278
vt 0.670132 0.413617
vt 0.750000 0.490000
vt 0.580294 0.419706
vt 0.682616 0.377278
vt 0.576311 0.733723
vt 0.541125 0.468806
vt 0.471643 0.342525
vt 0.428292 0.729382
vt 0.490000 0.250000
vt 0.371668 0.447750
vt 0.418597 0.409389
vt 0.419706 0.419706
vt 0.250000 0.490000
vt 0.436791 0.443937
s 0
f 16/1/1 25/2/1 24/3/1 15/4/1
f 23/5/2 18/6/2 17/7/2 22/8/2
f 19/9/3 26/10/3 27/11/3 20/6/3
f 20/6/4 27/11/4 25/12/4 16/13/4
f 18/14/5 23/15/5 28/16/5 21/1/5
f 21/1/6 28/16/6 26/17/6 19/18/6
f 1/19/7 5/20/7 16/21/7 15/22/7
f 7/23/7 3/24/7 17/25/7 18/26/7
f 6/27/7 2/28/7 19/29/7 20/30/7
f 5/20/7 6/27/7 20/30/7 16/21/7
f 13/31/7 7/23/7 18/26/7 21/30/7
f 2/28/7 13/31/7 21/30/7 19/29/7
f 10/32/8 12/33/8 23/5/8 22/8/8
f 11/34/8 9/35/8 24/3/8 25/36/8
f 4/37/8 8/38/8 27/39/8 26/40/8
f 8/38/8 11/34/8 25/36/8 27/39/8
f 14/41/8 4/37/8 26/40/8 28/39/8
f 12/33/8 14/41/8 28/39/8 23/5/8
f 24/3/9 9/35/9 1/19/9 15/22/9
f 5/20/2 1/19/2 9/35/2 11/34/2
f 11/34/10 8/38/10 6/27/10 5/20/10
f 8/38/11 4/37/11 2/28/11 6/27/11
f 4/37/12 14/41/12 13/31/12 2/28/12
f 14/41/13 12/33/13 7/23/13 13/31/13
f 12/33/1 10/32/1 3/24/1 7/23/1
f 22/8/9 17/25/9 3/24/9 10/32/9
o Belt_internals
v -0.950000 -0.200000 4.000000
v -0.950000 0.200000 4.000000
v 0.950000 -0.200000 4.000000
v 0.950000 0.200000 4.000000
v -0.950000 -0.000000 -1.200000
v -0.950000 -0.200000 -1.000000
v -0.950000 -0.141421 -1.141421
v -0.950000 0.200000 -1.000000
v -0.950000 0.000000 -1.200000
v -0.950000 0.141421 -1.141421
v 0.950000 -0.200000 -1.000000
v 0.950000 -0.000000 -1.200000
v 0.950000 -0.141421 -1.141421
v 0.950000 0.000000 -1.200000
v 0.950000 0.200000 -1.000000
v 0.950000 0.141421 -1.141421
vn -0.0000 -0.0000 1.0000
vn -0.0000 -0.9239 -0.3827
vn -0.0000 -0.3827 -0.9239
vn -0.0000 0.9239 -0.3827
vn -0.0000 0.3827 -0.9239
vn -0.0000 -1.0000 -0.0000
vn -1.0000 -0.0000 -0.0000
vn -0.0000 -0.0000 -1.0000
vn -0.0000 1.0000 -0.0000
vn 1.0000 -0.0000 -0.0000
vt 0.375000 0.750000
vt 0.625000 0.750000
vt 0.625000 1.000000
vt 0.375000 1.000000
vt 0.375000 0.522727
vt 0.125000 0.522727
vt 0.125000 0.500000
vt 0.387204 0.502219
vt 0.393306 0.246672
vt 0.500000 0.250000
vt 0.500000 0.500000
vt 0.875000 0.522727
vt 0.625000 0.522727
vt 0.612796 0.502219
vt 0.875000 0.500000
vt 0.606694 0.246672
vt 0.125000 0.750000
vt 0.375000 0.000000
vt 0.625000 0.000000
vt 0.625000 0.227273
vt 0.375000 0.227273
vt 0.875000 0.750000
s 0
f 31/42/14 32/43/14 30/44/14 29/45/14
f 39/46/15 34/47/15 35/48/15 41/49/15
f 41/49/16 35/50/16 33/51/16 40/52/16
f 36/53/17 43/54/17 44/55/17 38/56/17
f 38/57/18 44/55/18 42/52/18 37/51/18
f 34/47/19 39/46/19 31/42/19 29/58/19
f 29/59/20 30/60/20 36/61/20 38/57/20 37/51/20 33/51/20 35/50/20 34/62/20
f 33/51/21 37/51/21 42/52/21 40/52/21
f 43/54/22 36/53/22 30/63/22 32/43/22
f 39/46/23 41/49/23 40/52/23 42/52/23 44/55/23 43/54/23 32/43/23 31/42/23
o Roller
v -1.000000 -0.122925 -1.001900
v -0.975000 -0.149982 -1.002318
v 1.000000 -0.122926 -1.001900
v 0.975000 -0.149982 -1.002318
v -1.000000 -0.088265 -0.914422
v -0.975000 -0.107692 -0.895586
v 1.000000 -0.088265 -0.914422
v 0.975000 -0.107692 -0.895586
v -1.000000 -0.001900 -0.877075
v -0.975000 -0.002318 -0.850018
v 1.000000 -0.001900 -0.877074
v 0.975000 -0.002318 -0.850018
v -1.000000 0.085578 -0.911735
v -0.975000 0.104414 -0.892308
v 1.000000 0.085578 -0.911735
v 0.975000 0.104414 -0.892308
v -1.000000 0.122926 -0.998100
v -0.975000 0.149982 -0.997682
v 1.000000 0.122926 -0.998100
v 0.975000 0.149982 -0.997682
v -1.000000 0.088265 -1.085578
v -0.975000 0.107692 -1.104414
v 1.000000 0.088265 -1.085578
v 0.975000 0.107692 -1.104414
v -1.000000 0.001900 -1.122926
v -0.975000 0.002318 -1.149982
v 1.000000 0.001900 -1.122926
v 0.975000 0.002318 -1.149982
v -1.000000 -0.085578 -1.088265
v -0.975000 -0.104414 -1.107692
v 1.000000 -0.085578 -1.088265
v 0.975000 -0.104414 -1.107692
vn -0.7071 -0.6574 0.2605
vn 0.7071 -0.6574 0.2605
vn -0.7071 -0.2807 0.6490
vn 0.7071 -0.2807 0.6490
vn -0.7071 0.2605 0.6574
vn 0.7071 0.2605 0.6574
vn -0.7071 0.6490 0.2807
vn 0.7071 0.6490 0.2807
vn -0.7071 0.6574 -0.2605
vn 0.7071 0.6574 -0.2605
vn -0.7071 0.2807 -0.6490
vn 0.7071 0.2807 -0.6490
vn -0.7071 -0.2605 -0.6574
vn 0.7071 -0.2605 -0.6574
vn -0.7071 -0.6490 -0.2807
vn 0.7071 -0.6490 -0.2807
vn -1.0000 -0.0000 -0.0000
vn -0.0000 -0.9297 0.3684
vn -0.0000 -0.9179 -0.3969
vn 1.0000 -0.0000 -0.0000
vn -0.0000 -0.3969 0.9179
vn -0.0000 0.3684 0.9297
vn -0.0000 0.9179 0.3969
vn -0.0000 0.9297 -0.3684
vn -0.0000 0.3969 -0.9179
vn -0.0000 -0.3684 -0.9297
vt 0.750000 0.490000
vt 0.919706 0.419706
vt 0.889091 0.389091
vt 0.750000 0.446704
vt 0.419706 0.419706
vt 0.250000 0.490000
vt 0.250000 0.446704
vt 0.389091 0.389091
vt 0.990000 0.250000
vt 0.946704 0.250000
vt 0.490000 0.250000
vt 0.446704 0.250000
vt 0.919706 0.080294
vt 0.889091 0.110909
vt 0.419706 0.080294
vt 0.389091 0.110909
vt 0.750000 0.010000
vt 0.750000 0.053296
vt 0.250000 0.010000
vt 0.250000 0.053296
vt 0.580294 0.080294
vt 0.610909 0.110909
vt 0.080294 0.080294
vt 0.110909 0.110909
vt 0.510000 0.250000
vt 0.553296 0.250000
vt 0.010000 0.250000
vt 0.053296 0.250000
vt 0.580294 0.419706
vt 0.610909 0.389091
vt 0.080294 0.419706
vt 0.110909 0.389091
vt 1.000000 0.506250
vt 1.000000 0.993750
vt 0.875000 0.993750
vt 0.875000 0.506250
vt 0.125000 0.506250
vt 0.125000 0.993750
vt 0.000000 0.993750
vt 0.000000 0.506250
vt 0.750000 0.993750
vt 0.750000 0.506250
vt 0.625000 0.993750
vt 0.625000 0.506250
vt 0.500000 0.993750
vt 0.500000 0.506250
vt 0.375000 0.993750
vt 0.375000 0.506250
vt 0.250000 0.993750
vt 0.250000 0.506250
s 0
f 46/64/24 50/65/24 49/66/24 45/67/24
f 52/68/25 48/69/25 47/70/25 51/71/25
f 50/65/26 54/72/26 53/73/26 49/66/26
f 56/74/27 52/68/27 51/71/27 55/75/27
f 54/72/28 58/76/28 57/77/28 53/73/28
f 60/78/29 56/74/29 55/75/29 59/79/29
f 58/76/30 62/80/30 61/81/30 57/77/30
f 64/82/31 60/78/31 59/79/31 63/83/31
f 62/80/32 66/84/32 65/85/32 61/81/32
f 68/86/33 64/82/33 63/83/33 67/87/33
f 66/84/34 70/88/34 69/89/34 65/85/34
f 72/90/35 68/86/35 67/87/35 71/91/35
f 70/88/36 74/92/36 73/93/36 69/89/36
f 76/94/37 72/90/37 71/91/37 75/95/37
f 74/92/38 46/64/38 45/67/38 73/93/38
f 48/69/39 76/94/39 75/95/39 47/70/39
f 45/67/40 49/66/40 53/73/40 57/77/40 61/81/40 65/85/40 69/89/40 73/93/40
f 46/96/41 48/97/41 52/98/41 50/99/41
f 74/100/42 76/101/42 48/102/42 46/103/42
f 51/71/43 47/70/43 75/95/43 71/91/43 67/87/43 63/83/43 59/79/43 55/75/43
f 50/99/44 52/98/44 56/104/44 54/105/44
f 54/105/45 56/104/45 60/106/45 58/107/45
f 58/107/46 60/106/46 64/108/46 62/109/46
f 62/109/47 64/108/47 68/110/47 66/111/47
f 66/111/48 68/110/48 72/112/48 70/113/48
f 70/113/49 72/112/49 76/101/49 74/100/49
o Roller.001
v -1.000000 -0.085578 -0.088265
v -0.975000 -0.104414 -0.107692
v 1.000000 -0.085578 -0.088265
v 0.975000 -0.104414 -0.107692
v -1.000000 -0.122925 -0.001900
v -0.975000 -0.149982 -0.002318
v 1.000000 -0.122926 -0.001900
v 0.975000 -0.149982 -0.002318
v -1.000000 -0.088265 0.085578
v -0.975000 -0.107692 0.104414
v 1.000000 -0.088265 0.085578
v 0.975000 -0.107692 0.104414
v -1.000000 -0.001900 0.122925
v -0.975000 -0.002318 0.149982
v 1.000000 -0.001900 0.122926
v 0.975000 -0.002318 0.149982
v -1.000000 0.085578 0.088265
v -0.975000 0.104414 0.107692
v 1.000000 0.085578 0.088265
v 0.975000 0.104414 0.107692
v -1.000000 0.122926 0.001900
v -0.975000 0.149982 0.002318
v 1.000000 0.122925 0.001900
v 0.975000 0.149982 0.002318
v -1.000000 0.088265 -0.085578
v -0.975000 0.107692 -0.104414
v 1.000000 0.088265 -0.085578
v 0.975000 0.107692 -0.104414
v -1.000000 0.001900 -0.122926
v -0.975000 0.002318 -0.149982
v 1.000000 0.001900 -0.122925
v 0.975000 0.002318 -0.149982
vn -0.7071 -0.6490 -0.2807
vn 0.7071 -0.6490 -0.2807
vn -0.7071 -0.6574 0.2605
vn 0.7071 -0.6574 0.2605
vn -0.7071 -0.2807 0.6490
vn 0.7071 -0.2807 0.6490
vn -0.7071 0.2605 0.6574
vn 0.7071 0.2605 0.6574
vn -0.7071 0.6490 0.2807
vn 0.7071 0.6490 0.2807
vn -0.7071 0.6574 -0.2605
vn 0.7071 0.6574 -0.2605
vn -0.7071 0.2807 -0.6490
vn 0.7071 0.2807 -0.6490
vn -0.7071 -0.2605 -0.6574
vn 0.7071 -0.2605 -0.6574
vn -1.0000 -0.0000 -0.0000
vn -0.0000 -0.9179 -0.3969
vn -0.0000 -0.3684 -0.9297
vn 1.0000 -0.0000 -0.0000
vn -0.0000 -0.9297 0.3684
vn -0.0000 -0.3969 0.9179
vn -0.0000 0.3684 0.9297
vn -0.0000 0.9179 0.3969
vn -0.0000 0.9297 -0.3684
vn -0.0000 0.3969 -0.9179
vt 0.750000 0.490000
vt 0.919706 0.419706
vt 0.889091 0.389091
vt 0.750000 0.446704
vt 0.419706 0.419706
vt 0.250000 0.490000
vt 0.250000 0.446704
vt 0.389091 0.389091
vt 0.990000 0.250000
vt 0.946704 0.250000
vt 0.490000 0.250000
vt 0.446704 0.250000
vt 0.919706 0.080294
vt 0.889091 0.110909
vt 0.419706 0.080294
vt 0.389091 0.110909
vt 0.750000 0.010000
vt 0.750000 0.053296
vt 0.250000 0.010000
vt 0.250000 0.053296
vt 0.580294 0.080294
vt 0.610909 0.110909
vt 0.080294 0.080294
vt 0.110909 0.110909
vt 0.510000 0.250000
vt 0.553296 0.250000
vt 0.010000 0.250000
vt 0.053296 0.250000
vt 0.580294 0.419706
vt 0.610909 0.389091
vt 0.080294 0.419706
vt 0.110909 0.389091
vt 1.000000 0.506250
vt 1.000000 0.993750
vt 0.875000 0.993750
vt 0.875000 0.506250
vt 0.125000 0.506250
vt 0.125000 0.993750
vt 0.000000 0.993750
vt 0.000000 0.506250
vt 0.750000 0.993750
vt 0.750000 0.506250
vt 0.625000 0.993750
vt 0.625000 0.506250
vt 0.500000 0.993750
vt 0.500000 0.506250
vt 0.375000 0.993750
vt 0.375000 0.506250
vt 0.250000 0.993750
vt 0.250000 0.506250
s 0
f 78/114/50 82/115/50 81/116/50 77/117/50
f 84/118/51 80/119/51 79/120/51 83/121/51
f 82/115/52 86/122/52 85/123/52 81/116/52
f 88/124/53 84/118/53 83/121/53 87/125/53
f 86/122/54 90/126/54 89/127/54 85/123/54
f 92/128/55 88/124/55 87/125/55 91/129/55
f 90/126/56 94/130/56 93/131/56 89/127/56
f 96/132/57 92/128/57 91/129/57 95/133/57
f 94/130/58 98/134/58 97/135/58 93/131/58
f 100/136/59 96/132/59 95/133/59 99/137/59
f 98/134/60 102/138/60 101/139/60 97/135/60
f 104/140/61 100/136/61 99/137/61 103/141/61
f 102/138/62 106/142/62 105/143/62 101/139/62
f 108/144/63 104/140/63 103/141/63 107/145/63
f 106/142/64 78/114/64 77/117/64 105/143/64
f 80/119/65 108/144/65 107/145/65 79/120/65
f 77/117/66 81/116/66 85/123/66 89/127/66 93/131/66 97/135/66 101/139/66 105/143/66
f 78/146/67 80/147/67 84/148/67 82/149/67
f 106/150/68 108/151/68 80/152/68 78/153/68
f 83/121/69 79/120/69 107/145/69 103/141/69 99/137/69 95/133/69 91/129/69 87/125/69
f 82/149/70 84/148/70 88/154/70 86/155/70
f 86/155/71 88/154/71 92/156/71 90/157/71
f 90/157/72 92/156/72 96/158/72 94/159/72
f 94/159/73 96/158/73 100/160/73 98/161/73
f 98/161/74 100/160/74 104/162/74 102/163/74
f 102/163/75 104/162/75 108/151/75 106/150/75
o Roller.002
v -1.000000 -0.085578 0.911735
v -0.975000 -0.104414 0.892308
v 1.000000 -0.085578 0.911735
v 0.975000 -0.104414 0.892308
v -1.000000 -0.122925 0.998100
v -0.975000 -0.149982 0.997682
v 1.000000 -0.122926 0.998100
v 0.975000 -0.149982 0.997682
v -1.000000 -0.088265 1.085578
v -0.975000 -0.107692 1.104414
v 1.000000 -0.088265 1.085578
v 0.975000 -0.107692 1.104414
v -1.000000 -0.001900 1.122926
v -0.975000 -0.002318 1.149982
v 1.000000 -0.001900 1.122926
v 0.975000 -0.002318 1.149982
v -1.000000 0.085578 1.088265
v -0.975000 0.104414 1.107692
v 1.000000 0.085578 1.088265
v 0.975000 0.104414 1.107692
v -1.000000 0.122926 1.001900
v -0.975000 0.149982 1.002318
v 1.000000 0.122925 1.001900
v 0.975000 0.149982 1.002318
v -1.000000 0.088265 0.914422
v -0.975000 0.107692 0.895586
v 1.000000 0.088265 0.914422
v 0.975000 0.107692 0.895586
v -1.000000 0.001900 0.877074
v -0.975000 0.002318 0.850018
v 1.000000 0.001900 0.877075
v 0.975000 0.002318 0.850018
vn -0.7071 -0.6490 -0.2807
vn 0.7071 -0.6490 -0.2807
vn -0.7071 -0.6574 0.2605
vn 0.7071 -0.6574 0.2605
vn -0.7071 -0.2807 0.6490
vn 0.7071 -0.2807 0.6490
vn -0.7071 0.2605 0.6574
vn 0.7071 0.2605 0.6574
vn -0.7071 0.6490 0.2807
vn 0.7071 0.6490 0.2807
vn -0.7071 0.6574 -0.2605
vn 0.7071 0.6574 -0.2605
vn -0.7071 0.2807 -0.6490
vn 0.7071 0.2807 -0.6490
vn -0.7071 -0.2605 -0.6574
vn 0.7071 -0.2605 -0.6574
vn -1.0000 -0.0000 -0.0000
vn -0.0000 -0.9179 -0.3969
vn -0.0000 -0.3684 -0.9297
vn 1.0000 -0.0000 -0.0000
vn -0.0000 -0.9297 0.3684
vn -0.0000 -0.3969 0.9179
vn -0.0000 0.3684 0.9297
vn -0.0000 0.9179 0.3969
vn -0.0000 0.9297 -0.3684
vn -0.0000 0.3969 -0.9179
vt 0.750000 0.490000
vt 0.919706 0.419706
vt 0.889091 0.389091
vt 0.750000 0.446704
vt 0.419706 0.419706
vt 0.250000 0.490000
vt 0.250000 0.446704
vt 0.389091 0.389091
vt 0.990000 0.250000
vt 0.946704 0.250000
vt 0.490000 0.250000
vt 0.446704 0.250000
vt 0.919706 0.080294
vt 0.889091 0.110909
vt 0.419706 0.080294
vt 0.389091 0.110909
vt 0.750000 0.010000
vt 0.750000 0.053296
vt 0.250000 0.010000
vt 0.250000 0.053296
vt 0.580294 0.080294
vt 0.610909 0.110909
vt 0.080294 0.080294
vt 0.110909 0.110909
vt 0.510000 0.250000
vt 0.553296 0.250000
vt 0.010000 0.250000
vt 0.053296 0.250000
vt 0.580294 0.419706
vt 0.610909 0.389091
vt 0.080294 0.419706
vt 0.110909 0.389091
vt 1.000000 0.506250
vt 1.000000 0.993750
vt 0.875000 0.993750
vt 0.875000 0.506250
vt 0.125000 0.506250
vt 0.125000 0.993750
vt 0.000000 0.993750
vt 0.000000 0.506250
vt 0.750000 0.993750
vt 0.750000 0.506250
vt 0.625000 0.993750
vt 0.625000 0.506250
vt 0.500000 0.993750
vt 0.500000 0.506250
vt 0.375000 0.993750
vt 0.375000 0.506250
vt 0.250000 0.993750
vt 0.250000 0.506250
s 0
f 110/164/76 114/165/76 113/166/76 109/167/76
f 116/168/77 112/169/77 111/170/77 115/171/77
f 114/165/78 118/172/78 117/173/78 113/166/78
f 120/174/79 116/168/79 115/171/79 119/175/79
f 118/172/80 122/176/80 121/177/80 117/173/80
f 124/178/81 120/174/81 119/175/81 123/179/81
f 122/176/82 126/180/82 125/181/82 121/177/82
f 128/182/83 124/178/83 123/179/83 127/183/83
f 126/180/84 130/184/84 129/185/84 125/181/84
f 132/186/85 128/182/85 127/183/85 131/187/85
f 130/184/86 134/188/86 133/189/86 129/185/86
f 136/190/87 132/186/87 131/187/87 135/191/87
f 134/188/88 138/192/88 137/193/88 133/189/88
f 140/194/89 136/190/89 135/191/89 139/195/89
f 138/192/90 110/164/90 109/167/90 137/193/90
f 112/169/91 140/194/91 139/195/91 111/170/91
f 109/167/92 113/166/92 117/173/92 121/177/92 125/181/92 129/185/92 133/189/92 137/193/92
f 110/196/93 112/197/93 116/198/93 114/199/93
f 138/200/94 140/201/94 112/202/94 110/203/94
f 115/171/95 111/170/95 139/195/95 135/191/95 131/187/95 127/183/95 123/179/95 119/175/95
f 114/199/96 116/198/96 120/204/96 118/205/96
f 118/205/97 120/204/97 124/206/97 122/207/97
f 122/207/98 124/206/98 128/208/98 126/209/98
f 126/209/99 128/208/99 132/210/99 130/211/99
f 130/211/100 132/210/100 136/212/100 134/213/100
f 134/213/101 136/212/101 140/201/101 138/200/101
o Roller.003
v -1.000000 -0.085578 1.911735
v -0.975000 -0.104414 1.892308
v 1.000000 -0.085578 1.911735
v 0.975000 -0.104414 1.892308
v -1.000000 -0.122925 1.998100
v -0.975000 -0.149982 1.997682
v 1.000000 -0.122926 1.998100
v 0.975000 -0.149982 1.997682
v -1.000000 -0.088265 2.085578
v -0.975000 -0.107692 2.104414
v 1.000000 -0.088265 2.085578
v 0.975000 -0.107692 2.104414
v -1.000000 -0.001900 2.122926
v -0.975000 -0.002318 2.149982
v 1.000000 -0.001900 2.122926
v 0.975000 -0.002318 2.149982
v -1.000000 0.085578 2.088265
v -0.975000 0.104414 2.107692
v 1.000000 0.085578 2.088265
v 0.975000 0.104414 2.107692
v -1.000000 0.122926 2.001900
v -0.975000 0.149982 2.002318
v 1.000000 0.122926 2.001900
v 0.975000 0.149982 2.002318
v -1.000000 0.088265 1.914422
v -0.975000 0.107692 1.895586
v 1.000000 0.088265 1.914422
v 0.975000 0.107692 1.895586
v -1.000000 0.001900 1.877074
v -0.975000 0.002318 1.850018
v 1.000000 0.001900 1.877074
v 0.975000 0.002318 1.850018
vn -0.7071 -0.6490 -0.2807
vn 0.7071 -0.6490 -0.2807
vn -0.7071 -0.6574 0.2605
vn 0.7071 -0.6574 0.2605
vn -0.7071 -0.2807 0.6490
vn 0.7071 -0.2807 0.6490
vn -0.7071 0.2605 0.6574
vn 0.7071 0.2605 0.6574
vn -0.7071 0.6490 0.2807
vn 0.7071 0.6490 0.2807
vn -0.7071 0.6574 -0.2605
vn 0.7071 0.6574 -0.2605
vn -0.7071 0.2807 -0.6490
vn 0.7071 0.2807 -0.6490
vn -0.7071 -0.2605 -0.6574
vn 0.7071 -0.2605 -0.6574
vn -1.0000 -0.0000 -0.0000
vn -0.0000 -0.9179 -0.3969
vn -0.0000 -0.3684 -0.9297
vn 1.0000 -0.0000 -0.0000
vn -0.0000 -0.9297 0.3684
vn -0.0000 -0.3969 0.9179
vn -0.0000 0.3684 0.9297
vn -0.0000 0.9179 0.3969
vn -0.0000 0.9297 -0.3684
vn -0.0000 0.3969 -0.9179
vt 0.750000 0.490000
vt 0.919706 0.419706
vt 0.889091 0.389091
vt 0.750000 0.446704
vt 0.419706 0.419706
vt 0.250000 0.490000
vt 0.250000 0.446704
vt 0.389091 0.389091
vt 0.990000 0.250000
vt 0.946704 0.250000
vt 0.490000 0.250000
vt 0.446704 0.250000
vt 0.919706 0.080294
vt 0.889091 0.110909
vt 0.419706 0.080294
vt 0.389091 0.110909
vt 0.750000 0.010000
vt 0.750000 0.053296
vt 0.250000 0.010000
vt 0.250000 0.053296
vt 0.580294 0.080294
vt 0.610909 0.110909
vt 0.080294 0.080294
vt 0.110909 0.110909
vt 0.510000 0.250000
vt 0.553296 0.250000
vt 0.010000 0.250000
vt 0.053296 0.250000
vt 0.580294 0.419706
vt 0.610909 0.389091
vt 0.080294 0.419706
vt 0.110909 0.389091
vt 1.000000 0.506250
vt 1.000000 0.993750
vt 0.875000 0.993750
vt 0.875000 0.506250
vt 0.125000 0.506250
vt 0.125000 0.993750
vt 0.000000 0.993750
vt 0.000000 0.506250
vt 0.750000 0.993750
vt 0.750000 0.506250
vt 0.625000 0.993750
vt 0.625000 0.506250
vt 0.500000 0.993750
vt 0.500000 0.506250
vt 0.375000 0.993750
vt 0.375000 0.506250
vt 0.250000 0.993750
vt 0.250000 0.506250
s 0
f 142/214/102 146/215/102 145/216/102 141/217/102
f 148/218/103 144/219/103 143/220/103 147/221/103
f 146/215/104 150/222/104 149/223/104 145/216/104
f 152/224/105 148/218/105 147/221/105 151/225/105
f 150/222/106 154/226/106 153/227/106 149/223/106
f 156/228/107 152/224/107 151/225/107 155/229/107
f 154/226/108 158/230/108 157/231/108 153/227/108
f 160/232/109 156/228/109 155/229/109 159/233/109
f 158/230/110 162/234/110 161/235/110 157/231/110
f 164/236/111 160/232/111 159/233/111 163/237/111
f 162/234/112 166/238/112 165/239/112 161/235/112
f 168/240/113 164/236/113 163/237/113 167/241/113
f 166/238/114 170/242/114 169/243/114 165/239/114
f 172/244/115 168/240/115 167/241/115 171/245/115
f 170/242/116 142/214/116 141/217/116 169/243/116
f 144/219/117 172/244/117 171/245/117 143/220/117
f 141/217/118 145/216/118 149/223/118 153/227/118 157/231/118 161/235/118 165/239/118 169/243/118
f 142/246/119 144/247/119 148/248/119 146/249/119
f 170/250/120 172/251/120 144/252/120 142/253/120
f 147/221/121 143/220/121 171/245/121 167/241/121 163/237/121 159/233/121 155/229/121 151/225/121
f 146/249/122 148/248/122 152/254/122 150/255/122
f 150/255/123 152/254/123 156/256/123 154/257/123
f 154/257/124 156/256/124 160/258/124 158/259/124
f 158/259/125 160/258/125 164/260/125 162/261/125
f 162/261/126 164/260/126 168/262/126 166/263/126
f 166/263/127 168/262/127 172/251/127 170/250/127
o Roller.004
v -1.000000 -0.085578 2.911735
v -0.975000 -0.104415 2.892308
v 1.000000 -0.085579 2.911735
v 0.975000 -0.104415 2.892308
v -1.000000 -0.122926 2.998100
v -0.975000 -0.149982 2.997682
v 1.000000 -0.122926 2.998100
v 0.975000 -0.149982 2.997682
v -1.000000 -0.088265 3.085578
v -0.975000 -0.107693 3.104414
v 1.000000 -0.088265 3.085578
v 0.975000 -0.107693 3.104414
v -1.000000 -0.001900 3.122926
v -0.975000 -0.002318 3.149982
v 1.000000 -0.001900 3.122926
v 0.975000 -0.002318 3.149982
v -1.000000 0.085578 3.088265
v -0.975000 0.104414 3.107692
v 1.000000 0.085578 3.088265
v 0.975000 0.104414 3.107693
v -1.000000 0.122925 3.001900
v -0.975000 0.149982 3.002318
v 1.000000 0.122925 3.001900
v 0.975000 0.149982 3.002318
v -1.000000 0.088265 2.914422
v -0.975000 0.107692 2.895586
v 1.000000 0.088264 2.914422
v 0.975000 0.107692 2.895586
v -1.000000 0.001899 2.877074
v -0.975000 0.002318 2.850018
v 1.000000 0.001899 2.877074
v 0.975000 0.002318 2.850018
vn -0.7071 -0.6490 -0.2807
vn 0.7071 -0.6490 -0.2807
vn -0.7071 -0.6574 0.2605
vn 0.7071 -0.6574 0.2605
vn -0.7071 -0.2807 0.6490
vn 0.7071 -0.2807 0.6490
vn -0.7071 0.2605 0.6574
vn 0.7071 0.2605 0.6574
vn -0.7071 0.6490 0.2807
vn 0.7071 0.6490 0.2807
vn -0.7071 0.6574 -0.2605
vn 0.7071 0.6574 -0.2605
vn -0.7071 0.2807 -0.6490
vn 0.7071 0.2807 -0.6490
vn -0.7071 -0.2605 -0.6574
vn 0.7071 -0.2605 -0.6574
vn -1.0000 -0.0000 -0.0000
vn -0.0000 -0.9179 -0.3969
vn -0.0000 -0.3684 -0.9297
vn 1.0000 -0.0000 -0.0000
vn -0.0000 -0.9297 0.3684
vn -0.0000 -0.3969 0.9179
vn -0.0000 0.3684 0.9297
vn -0.0000 0.9179 0.3969
vn -0.0000 0.9297 -0.3684
vn -0.0000 0.3969 -0.9179
vt 0.750000 0.490000
vt 0.919706 0.419706
vt 0.889091 0.389091
vt 0.750000 0.446704
vt 0.419706 0.419706
vt 0.250000 0.490000
vt 0.250000 0.446704
vt 0.389091 0.389091
vt 0.990000 0.250000
vt 0.946704 0.250000
vt 0.490000 0.250000
vt 0.446704 0.250000
vt 0.919706 0.080294
vt 0.889091 0.110909
vt 0.419706 0.080294
vt 0.389091 0.110909
vt 0.750000 0.010000
vt 0.750000 0.053296
vt 0.250000 0.010000
vt 0.250000 0.053296
vt 0.580294 0.080294
vt 0.610909 0.110909
vt 0.080294 0.080294
vt 0.110909 0.110909
vt 0.510000 0.250000
vt 0.553296 0.250000
vt 0.010000 0.250000
vt 0.053296 0.250000
vt 0.580294 0.419706
vt 0.610909 0.389091
vt 0.080294 0.419706
vt 0.110909 0.389091
vt 1.000000 0.506250
vt 1.000000 0.993750
vt 0.875000 0.993750
vt 0.875000 0.506250
vt 0.125000 0.506250
vt 0.125000 0.993750
vt 0.000000 0.993750
vt 0.000000 0.506250
vt 0.750000 0.993750
vt 0.750000 0.506250
vt 0.625000 0.993750
vt 0.625000 0.506250
vt 0.500000 0.993750
vt 0.500000 0.506250
vt 0.375000 0.993750
vt 0.375000 0.506250
vt 0.250000 0.993750
vt 0.250000 0.506250
s 0
f 174/264/128 178/265/128 177/266/128 173/267/128
f 180/268/129 176/269/129 175/270/129 179/271/129
f 178/265/130 182/272/130 181/273/130 177/266/130
f 184/274/131 180/268/131 179/271/131 183/275/131
f 182/272/132 186/276/132 185/277/132 181/273/132
f 188/278/133 184/274/133 183/275/133 187/279/133
f 186/276/134 190/280/134 189/281/134 185/277/134
f 192/282/135 188/278/135 187/279/135 191/283/135
f 190/280/136 194/284/136 193/285/136 189/281/136
f 196/286/137 192/282/137 191/283/137 195/287/137
f 194/284/138 198/288/138 197/289/138 193/285/138
f 200/290/139 196/286/139 195/287/139 199/291/139
f 198/288/140 202/292/140 201/293/140 197/289/140
f 204/294/141 200/290/141 199/291/141 203/295/141
f 202/292/142 174/264/142 173/267/142 201/293/142
f 176/269/143 204/294/143 203/295/143 175/270/143
f 173/267/144 177/266/144 181/273/144 185/277/144 189/281/144 193/285/144 197/289/144 201/293/144
f 174/296/145 176/297/145 180/298/145 178/299/145
f 202/300/146 204/301/146 176/302/146 174/303/146
f 179/271/147 175/270/147 203/295/147 199/291/147 195/287/147 191/283/147 187/279/147 183/275/147
f 178/299/148 180/298/148 184/304/148 182/305/148
f 182/305/149 184/304/149 188/306/149 186/307/149
f 186/307/150 188/306/150 192/308/150 190/309/150
f 190/309/151 192/308/151 196/310/151 194/311/151
f 194/311/152 196/310/152 200/312/152 198/313/152
f 198/313/153 200/312/153 204/301/153 202/300/153
o Flap
v 0.500000 0.350000 3.800000
v 0.500000 2.350000 3.800000
v 0.500000 0.350000 3.700000
v 0.500000 2.350000 3.700000
v 1.000000 0.350000 3.800000
v 1.000000 2.350000 3.800000
v 1.000000 0.350000 3.700000
v 1.000000 2.350000 3.700000
vn -1.0000 -0.0000 -0.0000
vn -0.0000 -0.0000 -1.0000
vn 1.0000 -0.0000 -0.0000
vn -0.0000 -0.0000 1.0000
vn -0.0000 -1.0000 -0.0000
vn -0.0000 1.0000 -0.0000
vt 0.375000 0.000000
vt 0.625000 0.000000
vt 0.625000 0.250000
vt 0.375000 0.250000
vt 0.625000 0.500000
vt 0.375000 0.500000
vt 0.625000 0.750000
vt 0.375000 0.750000
vt 0.625000 1.000000
vt 0.375000 1.000000
vt 0.125000 0.500000
vt 0.125000 0.750000
vt 0.875000 0.500000
vt 0.875000 0.750000
s 0
f 205/314/154 206/315/154 208/316/154 207/317/154
f 207/317/155 208/316/155 212/318/155 211/319/155
f 211/319/156 212/318/156 210/320/156 209/321/156
f 209/321/157 210/320/157 206/322/157 205/323/157
f 207/324/158 211/319/158 209/321/158 205/325/158
f 212/318/159 208/326/159 206/327/159 210/320/159
o Flap.001
v 0.000000 0.350000 3.800000
v 0.000000 2.350000 3.800000
v 0.000000 0.350000 3.700000
v 0.000000 2.350000 3.700000
v 0.500000 0.350000 3.800000
v 0.500000 2.350000 3.800000
v 0.500000 0.350000 3.700000
v 0.500000 2.350000 3.700000
vn -1.0000 -0.0000 -0.0000
vn -0.0000 -0.0000 -1.0000
vn 1.0000 -0.0000 -0.0000
vn -0.0000 -0.0000 1.0000
vn -0.0000 -1.0000 -0.0000
vn -0.0000 1.0000 -0.0000
vt 0.375000 0.000000
vt 0.625000 0.000000
vt 0.625000 0.250000
vt 0.375000 0.250000
vt 0.625000 0.500000
vt 0.375000 0.500000
vt 0.625000 0.750000
vt 0.375000 0.750000
vt 0.625000 1.000000
vt 0.375000 1.000000
vt 0.125000 0.500000
vt 0.125000 0.750000
vt 0.875000 0.500000
vt 0.875000 0.750000
s 0
f 213/328/160 214/329/160 216/330/160 215/331/160
f 215/331/161 216/330/161 220/332/161 219/333/161
f 219/333/162 220/332/162 218/334/162 217/335/162
f 217/335/163 218/334/163 214/336/163 213/337/163
f 215/338/164 219/333/164 217/335/164 213/339/164
f 220/332/165 216/340/165 214/341/165 218/334/165
o Flap.002
v -0.500000 0.350000 3.800000
v -0.500000 2.350000 3.800000
v -0.500000 0.350000 3.700000
v -0.500000 2.350000 3.700000
v 0.000000 0.350000 3.800000
v 0.000000 2.350000 3.800000
v 0.000000 0.350000 3.700000
v 0.000000 2.350000 3.700000
vn -1.0000 -0.0000 -0.0000
vn -0.0000 -0.0000 -1.0000
vn 1.0000 -0.0000 -0.0000
vn -0.0000 -0.0000 1.0000
vn -0.0000 -1.0000 -0.0000
vn -0.0000 1.0000 -0.0000
vt 0.375000 0.000000
vt 0.625000 0.000000
vt 0.625000 0.250000
vt 0.375000 0.250000
vt 0.625000 0.500000
vt 0.375000 0.500000
vt 0.625000 0.750000
vt 0.375000 0.750000
vt 0.625000 1.000000
vt 0.375000 1.000000
vt 0.125000 0.500000
vt 0.125000 0.750000
vt 0.875000 0.500000
vt 0.875000 0.750000
s 0
f 221/342/166 222/343/166 224/344/166 223/345/166
f 223/345/167 224/344/167 228/346/167 227/347/167
f 227/347/168 228/346/168 226/348/168 225/349/168
f 225/349/169 226/348/169 222/350/169 221/351/169
f 223/352/170 227/347/170 225/349/170 221/353/170
f 228/346/171 224/354/171 222/355/171 226/348/171
o Flap.003
v -1.000000 0.350000 3.800000
v -1.000000 2.350000 3.800000
v -1.000000 0.350000 3.700000
v -1.000000 2.350000 3.700000
v -0.500000 0.350000 3.800000
v -0.500000 2.350000 3.800000
v -0.500000 0.350000 3.700000
v -0.500000 2.350000 3.700000
vn -1.0000 -0.0000 -0.0000
vn -0.0000 -0.0000 -1.0000
vn 1.0000 -0.0000 -0.0000
vn -0.0000 -0.0000 1.0000
vn -0.0000 -1.0000 -0.0000
vn -0.0000 1.0000 -0.0000
vt 0.375000 0.000000
vt 0.625000 0.000000
vt 0.625000 0.250000
vt 0.375000 0.250000
vt 0.625000 0.500000
vt 0.375000 0.500000
vt 0.625000 0.750000
vt 0.375000 0.750000
vt 0.625000 1.000000
vt 0.375000 1.000000
vt 0.125000 0.500000
vt 0.125000 0.750000
vt 0.875000 0.500000
vt 0.875000 0.750000
s 0
f 229/356/172 230/357/172 232/358/172 231/359/172
f 231/359/173 232/358/173 236/360/173 235/361/173
f 235/361/174 236/360/174 234/362/174 233/363/174
f 233/363/175 234/362/175 230/364/175 229/365/175
f 231/366/176 235/361/176 233/363/176 229/367/176
f 236/360/177 232/368/177 230/369/177 234/362/177
o Cabinet
v -1.200000 -0.450000 4.100000
v -1.200000 2.450000 4.100000
v -1.100000 -0.350000 3.500000
v -1.100000 2.350000 3.500000
v 1.200000 -0.450000 4.100000
v 1.200000 2.450000 4.100000
v 1.100000 -0.350000 3.500000
v 1.100000 2.350000 3.500000
v -1.200000 2.450000 3.500000
v -1.200000 -0.450000 3.500000
v 1.200000 -0.450000 3.500000
v 1.200000 2.450000 3.500000
v -1.100000 2.350000 4.000000
v -1.100000 -0.350000 4.000000
v 1.100000 -0.350000 4.000000
v 1.100000 2.350000 4.000000
vn -1.0000 -0.0000 -0.0000
vn -0.0000 -1.0000 -0.0000
vn 1.0000 -0.0000 -0.0000
vn -0.0000 -0.0000 1.0000
vn -0.0000 1.0000 -0.0000
vn -0.0000 -0.0000 -1.0000
vt 0.375000 0.000000
vt 0.625000 0.000000
vt 0.625000 0.250000
vt 0.375000 0.250000
vt 0.614583 0.260417
vt 0.614583 0.489583
vt 0.375000 0.500000
vt 0.625000 0.500000
vt 0.625000 0.750000
vt 0.375000 0.750000
vt 0.625000 1.000000
vt 0.375000 1.000000
vt 0.125000 0.500000
vt 0.125000 0.750000
vt 0.875000 0.500000
vt 0.875000 0.750000
vt 0.385417 0.260417
vt 0.385417 0.489583
s 0
f 237/370/178 238/371/178 245/372/178 246/373/178
f 240/374/179 244/375/179 252/375/179 249/374/179
f 247/376/180 248/377/180 242/378/180 241/379/180
f 241/379/181 242/378/181 238/380/181 237/381/181
f 246/382/179 247/376/179 241/379/179 237/383/179
f 248/377/182 245/384/182 238/385/182 242/378/182
f 240/374/183 239/386/183 246/373/183 245/372/183
f 239/386/183 243/387/183 247/376/183 246/373/183
f 244/375/183 240/374/183 245/372/183 248/377/183
f 243/387/183 244/375/183 248/377/183 247/376/183
f 250/386/183 249/374/183 252/375/183 251/387/183
f 239/386/180 240/374/180 249/374/180 250/386/180
f 244/375/178 243/387/178 251/387/178 252/375/178
f 243/387/182 239/386/182 250/386/182 251/387/182
